<svg preserveAspectRatio="none" width="100%" height="100%" overflow="visible" style="display: block;" viewBox="0 0 46.9333 46.9333" fill="none" xmlns="http://www.w3.org/2000/svg">
<g id="App-icons/Music" filter="url(#filter0_d_0_280)">
<path id="Background" d="M45.4637 13.1955C45.4612 12.7555 45.4561 12.3155 45.4438 11.8757C45.418 10.917 45.3617 9.95018 45.1912 9.00219C45.0182 8.04054 44.736 7.14556 44.2909 6.27178C43.8535 5.41302 43.2821 4.62714 42.6003 3.94584C41.9187 3.26454 41.1326 2.6935 40.2735 2.25633C39.3988 1.81126 38.5029 1.529 37.5402 1.35615C36.5921 1.18592 35.6249 1.12948 34.6663 1.10358C34.2262 1.09167 33.786 1.08665 33.3457 1.08393C32.8231 1.08073 32.3004 1.08099 31.7778 1.08099L25.7092 1.05926H21.1704L15.2093 1.08099C14.6856 1.08099 14.1619 1.08073 13.6383 1.08393C13.1971 1.08665 12.7561 1.09167 12.3151 1.10358C11.3542 1.12948 10.3849 1.18597 9.43456 1.35642C8.47058 1.52921 7.57328 1.81137 6.69746 2.25612C5.8365 2.69334 5.04874 3.26443 4.36568 3.94584C3.68272 4.62709 3.11025 5.41281 2.67201 6.27144C2.22582 7.1456 1.94292 8.04113 1.76959 9.00333C1.59893 9.9509 1.54238 10.9175 1.51638 11.8757C1.50453 12.3156 1.4994 12.7555 1.49673 13.1955C1.49353 13.718 1.46667 14.3669 1.46667 14.8893V20.7679V25.3553L1.49379 31.3588C1.49379 31.8819 1.49358 32.4049 1.49673 32.928C1.4994 33.3687 1.50453 33.8092 1.51643 34.2496C1.54238 35.2095 1.59904 36.1778 1.76986 37.1271C1.94314 38.09 2.22598 38.9863 2.6718 39.8611C3.11009 40.7212 3.68267 41.508 4.36568 42.1903C5.04869 42.8725 5.83625 43.4444 6.69704 43.8823C7.5734 44.3278 8.47109 44.6104 9.4357 44.7834C10.3856 44.9539 11.3546 45.0106 12.3151 45.0364C12.7561 45.0483 13.1971 45.0533 13.6383 45.0563C14.162 45.0593 14.6856 45.0593 15.2093 45.0593H21.2243H25.7743H31.7778C32.3004 45.0593 32.8231 45.0593 33.3457 45.0563C33.786 45.0533 34.2262 45.0483 34.6663 45.0364C35.6253 45.0106 36.5928 44.9539 37.5413 44.7834C38.5034 44.6104 39.3989 44.3278 40.2731 43.8823C41.1324 43.4444 41.9186 42.8727 42.6003 42.1903C43.2819 41.5081 43.8535 40.7214 44.2909 39.8615C44.736 38.9862 45.0182 38.0895 45.1912 37.1259C45.3617 36.1771 45.418 35.2092 45.4442 34.2496C45.4561 33.8091 45.4612 33.3686 45.4637 32.928C45.4667 32.4049 45.4667 31.8819 45.4667 31.3588C45.4667 31.3588 45.4667 25.4613 45.4667 25.3553V20.7631C45.4667 20.6848 45.4667 14.7626 45.4667 14.7626C45.4667 14.2403 45.4667 13.7179 45.4637 13.1955Z" fill="url(#paint0_linear_0_280)"/>
<mask id="mask0_0_280" style="mask-type:luminance" maskUnits="userSpaceOnUse" x="1" y="1" width="45" height="45">
<path id="Mask" d="M45.4637 13.1955C45.4612 12.7555 45.4561 12.3155 45.4438 11.8757C45.418 10.917 45.3617 9.95018 45.1912 9.00219C45.0182 8.04054 44.736 7.14556 44.2909 6.27178C43.8535 5.41302 43.2821 4.62714 42.6003 3.94584C41.9187 3.26454 41.1326 2.6935 40.2735 2.25633C39.3988 1.81126 38.5029 1.529 37.5402 1.35615C36.5921 1.18592 35.6249 1.12948 34.6663 1.10358C34.2262 1.09167 33.786 1.08665 33.3457 1.08393C32.8231 1.08073 32.3004 1.08099 31.7778 1.08099L25.7092 1.05926H21.1704L15.2093 1.08099C14.6856 1.08099 14.1619 1.08073 13.6383 1.08393C13.1971 1.08665 12.7561 1.09167 12.3151 1.10358C11.3542 1.12948 10.3849 1.18597 9.43456 1.35642C8.47058 1.52921 7.57328 1.81137 6.69746 2.25612C5.8365 2.69334 5.04874 3.26443 4.36568 3.94584C3.68272 4.62709 3.11025 5.41281 2.67201 6.27144C2.22582 7.1456 1.94292 8.04113 1.76959 9.00333C1.59893 9.9509 1.54238 10.9175 1.51638 11.8757C1.50453 12.3156 1.4994 12.7555 1.49673 13.1955C1.49353 13.718 1.46667 14.3669 1.46667 14.8893V20.7679V25.3553L1.49379 31.3588C1.49379 31.8819 1.49358 32.4049 1.49673 32.928C1.4994 33.3687 1.50453 33.8092 1.51643 34.2496C1.54238 35.2095 1.59904 36.1778 1.76986 37.1271C1.94314 38.09 2.22598 38.9863 2.6718 39.8611C3.11009 40.7212 3.68267 41.508 4.36568 42.1903C5.04869 42.8725 5.83625 43.4444 6.69704 43.8823C7.5734 44.3278 8.47109 44.6104 9.4357 44.7834C10.3856 44.9539 11.3546 45.0106 12.3151 45.0364C12.7561 45.0483 13.1971 45.0533 13.6383 45.0563C14.162 45.0593 14.6856 45.0593 15.2093 45.0593H21.2243H25.7743H31.7778C32.3004 45.0593 32.8231 45.0593 33.3457 45.0563C33.786 45.0533 34.2262 45.0483 34.6663 45.0364C35.6253 45.0106 36.5928 44.9539 37.5413 44.7834C38.5034 44.6104 39.3989 44.3278 40.2731 43.8823C41.1324 43.4444 41.9186 42.8727 42.6003 42.1903C43.2819 41.5081 43.8535 40.7214 44.2909 39.8615C44.736 38.9862 45.0182 38.0895 45.1912 37.1259C45.3617 36.1771 45.418 35.2092 45.4442 34.2496C45.4561 33.8091 45.4612 33.3686 45.4637 32.928C45.4667 32.4049 45.4667 31.8819 45.4667 31.3588C45.4667 31.3588 45.4667 25.4613 45.4667 25.3553V20.7631C45.4667 20.6848 45.4667 14.7626 45.4667 14.7626C45.4667 14.2403 45.4667 13.7179 45.4637 13.1955Z" fill="var(--fill-0, white)"/>
</mask>
<g mask="url(#mask0_0_280)">
<g id="Note">
<g id="Shape" filter="url(#filter1_i_0_280)">
<path d="M30.8628 14.9547C31.2885 14.8595 31.6803 15.025 31.8487 15.3727V26.136C31.7966 26.4044 31.581 26.7948 31.0727 26.972C30.3593 27.2073 29.9847 27.2785 29.4717 27.3759C29.2941 27.4097 29.1 27.4466 28.8694 27.4945C28.1768 27.5906 26.5959 28.0147 25.7219 28.8529C24.9664 29.6655 24.9069 30.8846 24.8826 31.4654C24.9293 33.4446 26.7236 34.6515 28.6596 34.6003C30.5092 34.5586 31.382 34.0749 32.3317 33.2418C33.3123 32.3719 33.4858 31.2665 33.4858 30.2114V25.927V15.0592V8.78935C33.4858 8.09051 32.932 7.63548 32.2267 7.74438L17.9581 10.5658C17.2439 10.6574 16.8563 11.3243 16.8655 12.0288V18.0897V28.7484C16.8643 28.7443 16.8632 28.7537 16.861 28.774C16.844 28.929 16.7571 29.7201 15.9647 30.0024C15.2271 30.2371 14.849 30.3056 14.284 30.4078C14.1007 30.441 13.8978 30.4778 13.6566 30.5249C13.0523 30.6151 11.4714 31.0391 10.614 31.8834C9.84186 32.6899 9.78242 33.909 9.77464 34.4958C9.8048 36.4691 11.599 37.6759 13.4467 37.6308C15.3846 37.5831 16.2574 37.0993 17.2237 36.2723C18.1878 35.3963 18.486 34.2909 18.5026 33.2418V28.7484V17.9852C18.6205 17.6911 18.8466 17.4745 19.1321 17.4627L30.8628 14.9547Z" fill="var(--fill-0, white)"/>
</g>
<mask id="mask1_0_280" style="mask-type:luminance" maskUnits="userSpaceOnUse" x="9" y="7" width="25" height="31">
<path id="Mask_2" d="M30.8628 14.9547C31.2885 14.8595 31.6803 15.025 31.8487 15.3727V26.136C31.7966 26.4044 31.581 26.7948 31.0727 26.972C30.3593 27.2073 29.9847 27.2785 29.4717 27.3759C29.2941 27.4097 29.1 27.4466 28.8694 27.4945C28.1768 27.5906 26.5959 28.0147 25.7219 28.8529C24.9664 29.6655 24.9069 30.8846 24.8826 31.4654C24.9293 33.4446 26.7236 34.6515 28.6596 34.6003C30.5092 34.5586 31.382 34.0749 32.3317 33.2418C33.3123 32.3719 33.4858 31.2665 33.4858 30.2114V25.927V15.0592V8.78935C33.4858 8.09051 32.932 7.63548 32.2267 7.74438L17.9581 10.5658C17.2439 10.6574 16.8563 11.3243 16.8655 12.0288V18.0897V28.7484C16.8643 28.7443 16.8632 28.7537 16.861 28.774C16.844 28.929 16.7571 29.7201 15.9647 30.0024C15.2271 30.2371 14.849 30.3056 14.284 30.4078C14.1007 30.441 13.8978 30.4778 13.6566 30.5249C13.0523 30.6151 11.4714 31.0391 10.614 31.8834C9.84186 32.6899 9.78242 33.909 9.77464 34.4958C9.8048 36.4691 11.599 37.6759 13.4467 37.6308C15.3846 37.5831 16.2574 37.0993 17.2237 36.2723C18.1878 35.3963 18.486 34.2909 18.5026 33.2418V28.7484V17.9852C18.6205 17.6911 18.8466 17.4745 19.1321 17.4627L30.8628 14.9547Z" fill="var(--fill-0, white)"/>
</mask>
<g mask="url(#mask1_0_280)">
</g>
</g>
</g>
</g>
<defs>
<filter id="filter0_d_0_280" x="0" y="2.98023e-08" width="46.9333" height="46.9333" filterUnits="userSpaceOnUse" color-interpolation-filters="sRGB">
<feFlood flood-opacity="0" result="BackgroundImageFix"/>
<feColorMatrix in="SourceAlpha" type="matrix" values="0 0 0 0 0 0 0 0 0 0 0 0 0 0 0 0 0 0 127 0" result="hardAlpha"/>
<feOffset dy="0.407407"/>
<feGaussianBlur stdDeviation="0.733333"/>
<feColorMatrix type="matrix" values="0 0 0 0 0 0 0 0 0 0 0 0 0 0 0 0 0 0 0.4 0"/>
<feBlend mode="normal" in2="BackgroundImageFix" result="effect1_dropShadow_0_280"/>
<feBlend mode="normal" in="SourceGraphic" in2="effect1_dropShadow_0_280" result="shape"/>
</filter>
<filter id="filter1_i_0_280" x="9.77464" y="7.72831" width="23.7111" height="30.3926" filterUnits="userSpaceOnUse" color-interpolation-filters="sRGB">
<feFlood flood-opacity="0" result="BackgroundImageFix"/>
<feBlend mode="normal" in="SourceGraphic" in2="BackgroundImageFix" result="shape"/>
<feColorMatrix in="SourceAlpha" type="matrix" values="0 0 0 0 0 0 0 0 0 0 0 0 0 0 0 0 0 0 127 0" result="hardAlpha"/>
<feOffset dy="0.488889"/>
<feGaussianBlur stdDeviation="0.244444"/>
<feComposite in2="hardAlpha" operator="arithmetic" k2="-1" k3="1"/>
<feColorMatrix type="matrix" values="0 0 0 0 0.358299 0 0 0 0 0 0 0 0 0 0 0 0 0 0.67152 0"/>
<feBlend mode="normal" in2="shape" result="effect1_innerShadow_0_280"/>
</filter>
<linearGradient id="paint0_linear_0_280" x1="45.4312" y1="44.9884" x2="45.4312" y2="1.05926" gradientUnits="userSpaceOnUse">
<stop stop-color="#FA233B"/>
<stop offset="1" stop-color="#FB5C74"/>
</linearGradient>
</defs>
</svg>
