<svg preserveAspectRatio="none" width="100%" height="100%" overflow="visible" style="display: block;" viewBox="0 0 241 226" fill="none" xmlns="http://www.w3.org/2000/svg">
<path id="Union" d="M123.063 80C123.063 83.3137 125.75 86 129.063 86H238.934C240.075 86 241 86.9252 241 88.0664C241 89.2077 240.075 90.1328 238.934 90.1328H217.476C215.194 90.1328 213.345 91.9825 213.345 94.2642C213.345 96.5458 215.194 98.3955 217.476 98.3955H235C238.314 98.3955 241 101.082 241 104.396V210.359C241 213.673 238.314 216.359 235 216.359H212.735C210.453 216.359 208.604 218.209 208.604 220.491C208.604 222.772 210.453 224.622 212.735 224.622H240.311C240.692 224.622 241 224.931 241 225.311C241 225.692 240.692 226 240.311 226H6C2.68629 226 0 223.314 0 220V189.238C0 185.965 2.65328 183.312 5.92627 183.312C9.19926 183.312 11.8525 180.658 11.8525 177.385V174.09C11.8525 170.817 9.19926 168.164 5.92627 168.164C2.65328 168.164 0 165.511 0 162.238V99.8037C0 96.49 2.68629 93.8037 6 93.8037H37.9771C40.132 93.8037 41.8789 92.0568 41.8789 89.9019C41.8789 87.7469 43.6258 86 45.7808 86H110.91C114.224 86 116.91 83.3137 116.91 80V46C116.91 42.6863 114.224 40 110.91 40H70.7109C69.6064 40 68.7109 39.1046 68.7109 38C68.7109 36.8954 67.8155 36 66.7109 36H66.6597C65.5268 36 64.6084 35.0816 64.6084 33.9487V13.6147C64.6084 11.0661 66.6745 9 69.2231 9H69.3379C71.8232 9 73.8379 6.98528 73.8379 4.5C73.8379 2.01472 75.8526 0 78.3379 0H166.738C168.671 0 170.238 1.567 170.238 3.5V4.43604C170.238 5.85207 171.386 7 172.802 7C174.218 7 175.366 8.14793 175.366 9.56396V32.9487C175.366 34.0816 174.448 35 173.315 35C172.182 35 171.264 35.9184 171.264 37.0513V37.5C171.264 38.8807 170.144 40 168.764 40H129.063C125.75 40 123.063 42.6863 123.063 46V80ZM3.16113 222.558C3.16113 223.698 4.08586 224.623 5.22656 224.623H8.20703C9.34774 224.623 10.2725 223.698 10.2725 222.558C10.2725 221.417 9.34774 220.492 8.20703 220.492H5.22656C4.08586 220.492 3.16113 221.417 3.16113 222.558ZM68.7109 30C68.7109 31.6569 70.0541 33 71.7109 33H71.8643C73.5211 33 74.8643 31.6569 74.8643 30C74.8643 28.3431 73.5211 27 71.8643 27H71.7109C70.0541 27 68.7109 28.3431 68.7109 30Z" fill="var(--fill-0, #C59898)"/>
</svg>
