<svg preserveAspectRatio="none" width="100%" height="100%" overflow="visible" style="display: block;" viewBox="0 0 235 225" fill="none" xmlns="http://www.w3.org/2000/svg">
<path id="Union" d="M219.59 90.2788C219.59 93.1942 221.953 95.5576 224.869 95.5576H229C232.314 95.5576 235 98.2439 235 101.558V169.427C235 172.74 232.314 175.427 229 175.427H225.59C222.276 175.427 219.59 178.113 219.59 181.427V185.033C219.59 188.347 222.276 191.033 225.59 191.033H229C232.314 191.033 235 193.719 235 197.033V211.197C235 214.511 232.314 217.197 229 217.197H191.131C188.976 217.197 187.229 218.944 187.229 221.099C187.229 223.253 185.483 225 183.328 225H53.9834C51.8287 225 50.082 223.253 50.082 221.099C50.082 218.944 48.3353 217.197 46.1807 217.197H6C2.68629 217.197 0 214.511 0 211.197V136.295C0 133.316 2.41478 130.901 5.39355 130.901C8.37233 130.901 10.7871 128.487 10.7871 125.508V120.688C10.7871 117.71 8.37233 115.295 5.39355 115.295C2.41478 115.295 0 112.88 0 109.901V99.2627C0 95.949 2.68629 93.2627 6 93.2627H18.9839C21.2656 93.2627 23.1152 91.413 23.1152 89.1313C23.1152 86.8497 24.9649 85 27.2466 85H108C111.314 85 114 82.3137 114 79V46C114 42.6863 111.314 40 108 40H55C51.6863 40 49 37.3137 49 34V13.8057C49 11.7039 50.7039 10 52.8057 10C54.9075 10 56.6113 8.29615 56.6113 6.19434V5C56.6113 2.23858 58.8499 0 61.6113 0H133.259C134.363 0 135.259 0.895431 135.259 2C135.259 3.10457 136.154 4 137.259 4H151.019C152.123 4 153.019 3.10457 153.019 2C153.019 0.895431 153.914 0 155.019 0H180C183.314 0 186 2.68629 186 6V10.8286C186 12.5801 184.58 14 182.829 14C181.077 14 179.657 15.4199 179.657 17.1714V22.8286C179.657 24.5801 181.077 26 182.829 26C184.58 26 186 27.4199 186 29.1714V34C186 37.3137 183.314 40 180 40H165.936C165.107 40 164.436 39.3284 164.436 38.5C164.436 37.6716 163.764 37 162.936 37H148.176C147.347 37 146.676 37.6716 146.676 38.5C146.676 39.3284 146.004 40 145.176 40H126C122.686 40 120 42.6863 120 46V79C120 82.3137 122.686 85 126 85H214.311C217.226 85 219.59 87.3634 219.59 90.2788ZM52.8057 35C52.8057 36.6569 54.1488 38 55.8057 38H57.417C59.0738 38 60.417 36.6569 60.417 35C60.417 33.3431 59.0738 32 57.417 32H55.8057C54.1488 32 52.8057 33.3431 52.8057 35Z" fill="var(--fill-0, #BBF7A1)"/>
</svg>
