<svg preserveAspectRatio="none" width="100%" height="100%" overflow="visible" style="display: block;" viewBox="0 0 235 226" fill="none" xmlns="http://www.w3.org/2000/svg">
<path id="Union" d="M120 80C120 83.3137 122.686 86 126 86H229C232.314 86 235 88.6863 235 92V126.6C235 128.514 233.448 130.066 231.533 130.066C229.619 130.066 228.066 131.619 228.066 133.533V158.271C228.066 160.186 229.619 161.738 231.533 161.738C233.448 161.738 235 163.29 235 165.205V208.066C235 211.38 232.314 214.066 229 214.066H209.377C206.082 214.066 203.41 216.738 203.41 220.033C203.41 223.329 200.739 226 197.443 226H16.6064C13.818 226 11.5576 223.74 11.5576 220.951C11.5576 218.163 9.29718 215.902 6.50879 215.902H5.77881C2.58726 215.902 0 213.315 0 210.124V169.723C0 167.595 1.72484 165.87 3.85254 165.87C5.98024 165.87 7.70508 164.145 7.70508 162.018V161.919C7.70508 159.791 5.98024 158.066 3.85254 158.066C1.72484 158.066 0 156.342 0 154.214V100.72C0 97.406 2.68629 94.7197 6 94.7197H34.1645C36.5724 94.7197 38.5244 92.7677 38.5244 90.3599C38.5244 87.952 40.4764 86 42.8843 86H108C111.314 86 114 83.3137 114 80V46C114 42.6863 111.314 40 108 40H72C70.3431 40 69 38.6569 69 37C69 35.3431 67.6569 34 66 34C64.3431 34 63 32.6569 63 31V10.5C63 8.567 64.567 7 66.5 7C68.433 7 70 5.433 70 3.5C70 1.567 71.567 0 73.5 0H102C103.105 0 104 0.895431 104 2C104 3.10457 104.895 4 106 4H108C109.105 4 110 3.10457 110 2C110 0.895431 110.895 0 112 0H162C163.657 0 165 1.34315 165 3C165 4.65685 166.343 6 168 6C169.657 6 171 7.34315 171 9V33.5C171 34.8807 169.881 36 168.5 36H168C166.895 36 166 36.8954 166 38C166 39.1046 165.105 40 164 40H142.5C141.672 40 141 39.3284 141 38.5C141 37.6716 140.328 37 139.5 37H130.5C129.672 37 129 37.6716 129 38.5C129 39.3284 128.328 40 127.5 40H124.5C122.015 40 120 42.0147 120 44.5V80ZM208.804 94.4917C208.804 97.6606 211.373 100.229 214.542 100.229H222.328C225.497 100.229 228.065 97.6606 228.065 94.4917C228.065 91.3228 225.497 88.7539 222.328 88.7539H214.542C211.373 88.7539 208.804 91.3228 208.804 94.4917Z" fill="var(--fill-0, #6FC1EA)"/>
</svg>
