<svg preserveAspectRatio="none" width="100%" height="100%" overflow="visible" style="display: block;" viewBox="0 0 235 226" fill="none" xmlns="http://www.w3.org/2000/svg">
<path id="Union" d="M120 80C120 83.3137 122.686 86 126 86H229C232.314 86 235 88.6863 235 92V140.369C235 142.284 233.448 143.836 231.533 143.836C229.618 143.836 228.065 145.388 228.065 147.303V162.402C228.065 164.317 229.618 165.869 231.533 165.869C233.448 165.869 235 167.421 235 169.336V208.066C235 211.38 232.314 214.066 229 214.066H201.672C198.377 214.066 195.705 216.738 195.705 220.033C195.705 223.329 193.034 226 189.738 226H2.34424C1.04956 226 0 224.95 0 223.656C0 222.361 1.04955 221.312 2.34424 221.312H5.94238C9.22427 221.312 11.8848 218.651 11.8848 215.369V213.942C11.8848 210.66 9.22427 208 5.94238 208C2.6605 208 0 205.34 0 202.058V124.589C0 121.275 2.68629 118.589 6 118.589H7.09863C10.4123 118.589 13.0986 115.903 13.0986 112.589V92C13.0986 88.6863 15.7849 86 19.0986 86H108C111.314 86 114 83.3137 114 80V46C114 42.6863 111.314 40 108 40H69C65.6863 40 63 37.3137 63 34V13C63 11.3431 64.3431 10 66 10C67.6569 10 69 8.65685 69 7V5C69 2.23858 71.2386 0 74 0H129C130.105 0 131 0.895431 131 2C131 3.10457 131.895 4 133 4H143C144.105 4 145 3.10457 145 2C145 0.895431 145.895 0 147 0H165C168.314 0 171 2.68629 171 6V11.5C171 12.8807 169.881 14 168.5 14C167.119 14 166 15.1193 166 16.5V23.5C166 24.8807 167.119 26 168.5 26C169.881 26 171 27.1193 171 28.5V34C171 37.3137 168.314 40 165 40H155.5C154.672 40 154 39.3284 154 38.5C154 37.6716 153.328 37 152.5 37H141.5C140.672 37 140 37.6716 140 38.5C140 39.3284 139.328 40 138.5 40H126C122.686 40 120 42.6863 120 46V80ZM220.361 91.9668C220.361 93.7412 221.8 95.1797 223.574 95.1797H227.935C229.709 95.1797 231.147 93.7412 231.147 91.9668C231.147 90.1924 229.709 88.7539 227.935 88.7539H223.574C221.8 88.7539 220.361 90.1924 220.361 91.9668ZM66 35C66 36.6569 67.3431 38 69 38C70.6569 38 72 36.6569 72 35C72 33.3431 70.6569 32 69 32C67.3431 32 66 33.3431 66 35Z" fill="var(--fill-0, #C498DF)"/>
</svg>
