<svg preserveAspectRatio="none" width="100%" height="100%" overflow="visible" style="display: block;" viewBox="0 0 266 40" fill="none" xmlns="http://www.w3.org/2000/svg">
<path id="Subtract" d="M266 8C266 11.3137 263.314 14 260 14H259.686C256.372 14 253.686 16.6863 253.686 20C253.686 23.3137 256.372 26 259.686 26H260C263.314 26 266 28.6863 266 32V34C266 37.3137 263.314 40 260 40H225.63C224.801 40 224.13 39.3284 224.13 38.5C224.13 37.6716 223.458 37 222.63 37H191.148C190.32 37 189.648 37.6716 189.648 38.5C189.648 39.3284 188.977 40 188.148 40H6C2.68629 40 0 37.3137 0 34V16C0 12.6863 2.68629 10 6 10H9.77734C12.5388 10 14.7773 7.76142 14.7773 5C14.7773 2.23858 17.0159 0 19.7773 0H165.481C166.586 0 167.481 0.895431 167.481 2C167.481 3.10457 168.377 4 169.481 4H199.963C201.067 4 201.963 3.10457 201.963 2C201.963 0.895431 202.858 0 203.963 0H260C263.314 0 266 2.68629 266 6V8ZM7.38867 35C7.38867 36.6569 8.73182 38 10.3887 38H19.167C20.8238 38 22.167 36.6569 22.167 35C22.167 33.3431 20.8238 32 19.167 32H10.3887C8.73182 32 7.38867 33.3431 7.38867 35Z" fill="var(--fill-0, #23A8D9)"/>
</svg>
