<svg preserveAspectRatio="none" width="100%" height="100%" overflow="visible" style="display: block;" viewBox="0 0 346 40" fill="none" xmlns="http://www.w3.org/2000/svg">
<path id="Subtract" d="M346 8C346 11.3137 343.314 14 340 14H335.981C332.668 14 329.981 16.6863 329.981 20C329.981 23.3137 332.668 26 335.981 26H340C343.314 26 346 28.6863 346 32V34C346 37.3137 343.314 40 340 40H293.037C292.209 40 291.537 39.3284 291.537 38.5C291.537 37.6716 290.866 37 290.037 37H248.185C247.356 37 246.685 37.6716 246.685 38.5C246.685 39.3284 246.013 40 245.185 40H6C2.68629 40 0 37.3137 0 34V16C0 12.6863 2.68629 10 6 10H14.2227C16.9841 10 19.2227 7.76142 19.2227 5C19.2227 2.23858 21.4612 0 24.2227 0H215.852C216.956 0 217.852 0.895431 217.852 2C217.852 3.10457 218.747 4 219.852 4H260.703C261.808 4 262.703 3.10457 262.703 2C262.703 0.895431 263.599 0 264.703 0H340C343.314 0 346 2.68629 346 6V8ZM9.61133 35C9.61133 36.6569 10.9545 38 12.6113 38H25.833C27.4899 38 28.833 36.6569 28.833 35C28.833 33.3431 27.4899 32 25.833 32H12.6113C10.9545 32 9.61133 33.3431 9.61133 35Z" fill="var(--fill-0, #4859A4)"/>
</svg>
