<svg preserveAspectRatio="none" width="100%" height="100%" overflow="visible" style="display: block;" viewBox="0 0 305 305" fill="none" xmlns="http://www.w3.org/2000/svg">
<path id="Subtract" d="M305 4.5C305 6.98528 302.985 9 300.5 9H276C272.686 9 270 11.6863 270 15V21C270 24.3137 272.686 27 276 27H299C302.314 27 305 29.6863 305 33V278C305 281.314 302.314 284 299 284H270C266.686 284 264 286.686 264 290V296C264 299.314 266.686 302 270 302H303.5C304.328 302 305 302.672 305 303.5C305 304.328 304.328 305 303.5 305H6.00001C2.6863 305 0 302.314 0 299V218C0 214.686 2.68629 212 6 212H9C12.3137 212 15 209.314 15 206V185C15 181.686 12.3137 179 9 179H6C2.68629 179 0 176.314 0 173V23C0 19.6863 2.68629 17 6 17H47C50.3137 17 53 14.3137 53 11V6C53 2.68629 55.6863 0 59 0H300.5C302.985 0 305 2.01472 305 4.5ZM4 297.5C4 299.985 6.01472 302 8.5 302C10.9853 302 13 299.985 13 297.5C13 295.015 10.9853 293 8.5 293C6.01472 293 4 295.015 4 297.5Z" fill="var(--fill-0, #BC6565)"/>
</svg>
