<svg preserveAspectRatio="none" width="100%" height="100%" overflow="visible" style="display: block;" viewBox="0 0 305 305" fill="none" xmlns="http://www.w3.org/2000/svg">
<path id="Subtract" d="M305 91.5C305 93.9853 302.985 96 300.5 96C298.015 96 296 98.0147 296 100.5V160.5C296 162.985 298.015 165 300.5 165C302.985 165 305 167.015 305 169.5V273C305 276.314 302.314 279 299 279H270C266.686 279 264 281.686 264 285V299C264 302.314 261.314 305 258 305H21C17.6863 305 15 302.314 15 299V289C15 285.686 12.3137 283 9 283H6C2.68629 283 0 280.314 0 277V179C0 176.239 2.23858 174 5 174C7.76142 174 10 171.761 10 169V162C10 159.239 7.76142 157 5 157C2.23858 157 0 154.761 0 152V25C0 21.6863 2.68629 19 6 19H44C47.3137 19 50 16.3137 50 13V6C50 2.68629 52.6863 0 56 0H299C302.314 0 305 2.68629 305 6V91.5ZM271 25C271 28.3137 273.686 31 277 31H290C293.314 31 296 28.3137 296 25V12C296 8.68629 293.314 6 290 6H277C273.686 6 271 8.68629 271 12V25Z" fill="var(--fill-0, #C47C39)"/>
</svg>
