<svg preserveAspectRatio="none" width="100%" height="100%" overflow="visible" style="display: block;" viewBox="0 0 305 305" fill="none" xmlns="http://www.w3.org/2000/svg">
<path id="Subtract" d="M285 17C285 20.3137 287.686 23 291 23H299C302.314 23 305 25.6863 305 29V191C305 194.314 302.314 197 299 197H291C287.686 197 285 199.686 285 203V225C285 228.314 287.686 231 291 231H299C302.314 231 305 233.686 305 237V282C305 285.314 302.314 288 299 288H249C245.686 288 243 290.686 243 294V299C243 302.314 240.314 305 237 305H71C67.6863 305 65 302.314 65 299V294C65 290.686 62.3137 288 59 288H6C2.68629 288 0 285.314 0 282V106C0 102.686 2.68629 100 6 100H8C11.3137 100 14 97.3137 14 94V72C14 68.6863 11.3137 66 8 66H6C2.68629 66 0 63.3137 0 60V24C0 20.6863 2.68629 18 6 18H24C27.3137 18 30 15.3137 30 12V6C30 2.68629 32.6863 0 36 0H279C282.314 0 285 2.68629 285 6V17Z" fill="var(--fill-0, #368BBF)"/>
</svg>
