<svg preserveAspectRatio="none" width="100%" height="100%" overflow="visible" style="display: block;" viewBox="0 0 305 305" fill="none" xmlns="http://www.w3.org/2000/svg">
<path id="Subtract" d="M305 121.5C305 123.985 302.985 126 300.5 126C298.015 126 296 128.015 296 130.5V169.5C296 171.985 298.015 174 300.5 174C302.985 174 305 176.015 305 178.5V273C305 276.314 302.314 279 299 279H260C256.686 279 254 281.686 254 285V299C254 302.314 251.314 305 248 305H6C2.68629 305 0 302.314 0 299V274C0 270.686 2.68629 268 6 268H11C14.3137 268 17 265.314 17 262V245C17 241.686 14.3137 239 11 239H6C2.68629 239 0 236.314 0 233V77C0 73.6863 2.68629 71 6 71H11C14.3137 71 17 68.3137 17 65V6C17 2.68629 19.6863 0 23 0H299C302.314 0 305 2.68629 305 6V121.5ZM286 14C286 17.3137 288.686 20 292 20H294C297.314 20 300 17.3137 300 14V12C300 8.68629 297.314 6 294 6H292C288.686 6 286 8.68629 286 12V14Z" fill="var(--fill-0, #9247C1)"/>
</svg>
