<svg preserveAspectRatio="none" width="100%" height="100%" overflow="visible" style="display: block;" viewBox="0 0 348 40" fill="none" xmlns="http://www.w3.org/2000/svg">
<path id="Subtract" d="M319 4.5C319 6.98528 321.015 9 323.5 9H342C345.314 9 348 11.6863 348 15V34C348 37.3137 345.314 40 342 40H105.611C104.231 40 103.111 38.8807 103.111 37.5C103.111 36.1193 101.992 35 100.611 35H76.6113C75.2306 35 74.1113 36.1193 74.1113 37.5C74.1113 38.8807 72.992 40 71.6113 40H4.5C2.01472 40 0 37.9853 0 35.5C0 33.0147 2.01472 31 4.5 31H13.333C16.6467 31 19.333 28.3137 19.333 25V19C19.333 15.6863 16.6467 13 13.333 13H6C2.68629 13 0 10.3137 0 7V6C0 2.68629 2.68629 0 6 0H21.5557C22.1079 0 22.5557 0.447715 22.5557 1C22.5557 1.55228 23.0034 2 23.5557 2H73.1113C73.6636 2 74.1113 1.55228 74.1113 1C74.1113 0.447715 74.559 0 75.1113 0H314.5C316.985 0 319 2.01472 319 4.5ZM277.111 34.5C277.111 35.8807 278.231 37 279.611 37H326.167C327.548 37 328.667 35.8807 328.667 34.5C328.667 33.1193 327.548 32 326.167 32H279.611C278.231 32 277.111 33.1193 277.111 34.5Z" fill="var(--fill-0, #B83400)"/>
</svg>
