<svg preserveAspectRatio="none" width="100%" height="100%" overflow="visible" style="display: block;" viewBox="0 0 279 40" fill="none" xmlns="http://www.w3.org/2000/svg">
<path id="Subtract" d="M227.333 3.5C227.333 5.433 228.9 7 230.833 7H273C276.314 7 279 9.68629 279 13V26C279 29.3137 276.314 32 273 32H262.333C260.124 32 258.333 33.7909 258.333 36C258.333 38.2091 256.542 40 254.333 40H164.75C163.645 40 162.75 39.1046 162.75 38C162.75 36.8954 161.855 36 160.75 36H115.667C114.562 36 113.667 36.8954 113.667 38C113.667 39.1046 112.772 40 111.667 40H22.667C21.5624 40 20.667 39.1046 20.667 38C20.667 36.8954 19.7716 36 18.667 36H6C2.68629 36 0 33.3137 0 30V23C0 19.6863 2.68629 17 6 17H6.91699C10.2307 17 12.917 14.3137 12.917 11V6C12.917 2.68629 15.6033 0 18.917 0H223.833C225.766 0 227.333 1.567 227.333 3.5Z" fill="var(--fill-0, #830081)"/>
</svg>
