<svg preserveAspectRatio="none" width="100%" height="100%" overflow="visible" style="display: block;" viewBox="0 0 299 40" fill="none" xmlns="http://www.w3.org/2000/svg">
<path id="Subtract" d="M285.157 3.5C285.157 5.433 286.724 7 288.657 7H293C296.314 7 299 9.68629 299 13V29.4629C299 32.521 296.521 35 293.463 35H290.426C289.045 35 287.926 36.1193 287.926 37.5C287.926 38.8807 286.806 40 285.426 40H13.0742C11.9696 40 11.0742 39.1046 11.0742 38C11.0742 36.8954 10.1788 36 9.07422 36H5.53711C2.47905 36 0 33.521 0 30.4629V15C0 11.6863 2.68629 9 6 9H20.417C22.9023 9 24.917 6.98528 24.917 4.5C24.917 2.01472 26.9317 0 29.417 0H281.657C283.59 0 285.157 1.567 285.157 3.5ZM11.0742 30C11.0742 31.6569 12.4174 33 14.0742 33H24.6855C26.3424 33 27.6855 31.6569 27.6855 30C27.6855 28.3431 26.3424 27 24.6855 27H14.0742C12.4174 27 11.0742 28.3431 11.0742 30Z" fill="var(--fill-0, #66B151)"/>
</svg>
