<svg preserveAspectRatio="none" width="100%" height="100%" overflow="visible" style="display: block;" viewBox="0 0 130.797 79.7451" fill="none" xmlns="http://www.w3.org/2000/svg">
<g id="Group 20">
<g id="Union" filter="url(#filter0_d_372_8206)">
<mask id="path-1-outside-1_372_8206" maskUnits="userSpaceOnUse" x="0" y="0" width="130" height="77" fill="black">
<rect fill="white" width="130" height="77"/>
<path d="M38.3662 73.7451H29.5234V56.0605H38.3662V73.7451ZM100.266 73.7422H91.4229V56.0566H100.266V73.7422ZM100.267 56.0557H82.5811V73.7393H73.7383V56.0557H56.0537V73.7402H47.2109V56.0557H29.5254V38.3623H3V20.6777H29.5254V3H100.267V56.0557ZM126.797 38.3633H100.269V20.6777H126.797V38.3633Z"/>
</mask>
<path d="M38.3662 73.7451H29.5234V56.0605H38.3662V73.7451ZM100.266 73.7422H91.4229V56.0566H100.266V73.7422ZM100.267 56.0557H82.5811V73.7393H73.7383V56.0557H56.0537V73.7402H47.2109V56.0557H29.5254V38.3623H3V20.6777H29.5254V3H100.267V56.0557ZM126.797 38.3633H100.269V20.6777H126.797V38.3633Z" fill="var(--fill-0, #D97757)"/>
<path d="M38.3662 73.7451V76.7451H41.3662V73.7451H38.3662ZM29.5234 73.7451H26.5234V76.7451H29.5234V73.7451ZM29.5234 56.0605V53.0605H26.5234V56.0605H29.5234ZM38.3662 56.0605H41.3662V53.0605H38.3662V56.0605ZM100.266 73.7422V76.7422H103.266V73.7422H100.266ZM91.4229 73.7422H88.4229V76.7422H91.4229V73.7422ZM91.4229 56.0566V53.0566H88.4229V56.0566H91.4229ZM100.266 56.0566H103.266V53.0566H100.266V56.0566ZM100.267 56.0557V59.0557H103.267V56.0557H100.267ZM82.5811 56.0557V53.0557H79.5811V56.0557H82.5811ZM82.5811 73.7393V76.7393H85.5811V73.7393H82.5811ZM73.7383 73.7393H70.7383V76.7393H73.7383V73.7393ZM73.7383 56.0557H76.7383V53.0557H73.7383V56.0557ZM56.0537 56.0557V53.0557H53.0537V56.0557H56.0537ZM56.0537 73.7402V76.7402H59.0537V73.7402H56.0537ZM47.2109 73.7402H44.2109V76.7402H47.2109V73.7402ZM47.2109 56.0557H50.2109V53.0557H47.2109V56.0557ZM29.5254 56.0557H26.5254V59.0557H29.5254V56.0557ZM29.5254 38.3623H32.5254V35.3623H29.5254V38.3623ZM3 38.3623H0V41.3623H3V38.3623ZM3 20.6777V17.6777H0V20.6777H3ZM29.5254 20.6777V23.6777H32.5254V20.6777H29.5254ZM29.5254 3V0H26.5254V3H29.5254ZM100.267 3H103.267V0H100.267V3ZM126.797 38.3633V41.3633H129.797V38.3633H126.797ZM100.269 38.3633H97.2686V41.3633H100.269V38.3633ZM100.269 20.6777V17.6777H97.2686V20.6777H100.269ZM126.797 20.6777H129.797V17.6777H126.797V20.6777ZM38.3662 73.7451V70.7451H29.5234V73.7451V76.7451H38.3662V73.7451ZM29.5234 73.7451H32.5234V56.0605H29.5234H26.5234V73.7451H29.5234ZM29.5234 56.0605V59.0605H38.3662V56.0605V53.0605H29.5234V56.0605ZM38.3662 56.0605H35.3662V73.7451H38.3662H41.3662V56.0605H38.3662ZM100.266 73.7422V70.7422H91.4229V73.7422V76.7422H100.266V73.7422ZM91.4229 73.7422H94.4229V56.0566H91.4229H88.4229V73.7422H91.4229ZM91.4229 56.0566V59.0566H100.266V56.0566V53.0566H91.4229V56.0566ZM100.266 56.0566H97.2656V73.7422H100.266H103.266V56.0566H100.266ZM100.267 56.0557V53.0557H82.5811V56.0557V59.0557H100.267V56.0557ZM82.5811 56.0557H79.5811V73.7393H82.5811H85.5811V56.0557H82.5811ZM82.5811 73.7393V70.7393H73.7383V73.7393V76.7393H82.5811V73.7393ZM73.7383 73.7393H76.7383V56.0557H73.7383H70.7383V73.7393H73.7383ZM73.7383 56.0557V53.0557H56.0537V56.0557V59.0557H73.7383V56.0557ZM56.0537 56.0557H53.0537V73.7402H56.0537H59.0537V56.0557H56.0537ZM56.0537 73.7402V70.7402H47.2109V73.7402V76.7402H56.0537V73.7402ZM47.2109 73.7402H50.2109V56.0557H47.2109H44.2109V73.7402H47.2109ZM47.2109 56.0557V53.0557H29.5254V56.0557V59.0557H47.2109V56.0557ZM29.5254 56.0557H32.5254V38.3623H29.5254H26.5254V56.0557H29.5254ZM29.5254 38.3623V35.3623H3V38.3623V41.3623H29.5254V38.3623ZM3 38.3623H6V20.6777H3H0V38.3623H3ZM3 20.6777V23.6777H29.5254V20.6777V17.6777H3V20.6777ZM29.5254 20.6777H32.5254V3H29.5254H26.5254V20.6777H29.5254ZM29.5254 3V6H100.267V3V0H29.5254V3ZM100.267 3H97.2666V56.0557H100.267H103.267V3H100.267ZM126.797 38.3633V35.3633H100.269V38.3633V41.3633H126.797V38.3633ZM100.269 38.3633H103.269V20.6777H100.269H97.2686V38.3633H100.269ZM100.269 20.6777V23.6777H126.797V20.6777V17.6777H100.269V20.6777ZM126.797 20.6777H123.797V38.3633H126.797H129.797V20.6777H126.797Z" fill="var(--stroke-0, white)" mask="url(#path-1-outside-1_372_8206)"/>
</g>
<rect id="Rectangle 199" x="38.37" y="11.8397" width="8.84261" height="8.84261" fill="var(--fill-0, black)"/>
<rect id="Rectangle 200" x="82.585" y="11.8337" width="8.84261" height="8.84261" fill="var(--fill-0, black)"/>
</g>
<defs>
<filter id="filter0_d_372_8206" x="0" y="0" width="130.797" height="79.7451" filterUnits="userSpaceOnUse" color-interpolation-filters="sRGB">
<feFlood flood-opacity="0" result="BackgroundImageFix"/>
<feColorMatrix in="SourceAlpha" type="matrix" values="0 0 0 0 0 0 0 0 0 0 0 0 0 0 0 0 0 0 127 0" result="hardAlpha"/>
<feOffset dx="1" dy="3"/>
<feComposite in2="hardAlpha" operator="out"/>
<feColorMatrix type="matrix" values="0 0 0 0 0.717308 0 0 0 0 0.389744 0 0 0 0 0.282785 0 0 0 1 0"/>
<feBlend mode="normal" in2="BackgroundImageFix" result="effect1_dropShadow_372_8206"/>
<feBlend mode="normal" in="SourceGraphic" in2="effect1_dropShadow_372_8206" result="shape"/>
</filter>
</defs>
</svg>
