<svg preserveAspectRatio="none" width="100%" height="100%" overflow="visible" style="display: block;" viewBox="0 0 16.0001 16" fill="none" xmlns="http://www.w3.org/2000/svg">
<g id="Frame 47">
<path id="Vector" d="M1.15464 0H0V1.15464H1.15464V0Z" fill="var(--fill-0, white)"/>
<path id="Vector_2" d="M2.63918 0H1.48454V1.15464H2.63918V0Z" fill="var(--fill-0, white)"/>
<path id="Vector_3" d="M1.15464 1.48454H0V2.63918H1.15464V1.48454Z" fill="var(--fill-0, white)"/>
<path id="Vector_4" d="M2.63918 1.48454H1.48454V2.63918H2.63918V1.48454Z" fill="var(--fill-0, white)"/>
<path id="Vector_5" d="M1.15464 4.45312H0V5.60776H1.15464V4.45312Z" fill="var(--fill-0, white)"/>
<path id="Vector_6" d="M2.63926 4.45312H1.48462V5.60776H2.63926V4.45312Z" fill="var(--fill-0, white)"/>
<path id="Vector_7" d="M1.15464 5.9375H0V7.09214H1.15464V5.9375Z" fill="var(--fill-0, white)"/>
<path id="Vector_8" d="M2.63926 5.9375H1.48462V7.09214H2.63926V5.9375Z" fill="var(--fill-0, white)"/>
<path id="Vector_9" d="M1.15464 7.42188H0V8.57651H1.15464V7.42188Z" fill="var(--fill-0, white)"/>
<path id="Vector_10" d="M2.63914 7.42188H1.4845V8.57651H2.63914V7.42188Z" fill="var(--fill-0, white)"/>
<path id="Vector_11" d="M1.15464 8.90625H0V10.0609H1.15464V8.90625Z" fill="var(--fill-0, white)"/>
<path id="Vector_12" d="M2.63914 8.90625H1.4845V10.0609H2.63914V8.90625Z" fill="var(--fill-0, white)"/>
<path id="Vector_13" d="M1.15464 10.3906H0V11.5453H1.15464V10.3906Z" fill="var(--fill-0, white)"/>
<path id="Vector_14" d="M2.63914 10.3906H1.4845V11.5453H2.63914V10.3906Z" fill="var(--fill-0, white)"/>
<path id="Vector_15" d="M1.15464 11.875H0V13.0296H1.15464V11.875Z" fill="var(--fill-0, white)"/>
<path id="Vector_16" d="M2.63926 11.875H1.48462V13.0296H2.63926V11.875Z" fill="var(--fill-0, white)"/>
<path id="Vector_17" d="M1.15464 13.3594H0V14.514H1.15464V13.3594Z" fill="var(--fill-0, white)"/>
<path id="Vector_18" d="M2.63926 13.3594H1.48462V14.514H2.63926V13.3594Z" fill="var(--fill-0, white)"/>
<path id="Vector_19" d="M1.15464 14.8438H0V15.9984H1.15464V14.8438Z" fill="var(--fill-0, white)"/>
<path id="Vector_20" d="M2.63926 14.8438H1.48462V15.9984H2.63926V14.8438Z" fill="var(--fill-0, white)"/>
<path id="Vector_21" d="M7.09287 4.45312H5.93823V5.60776H7.09287V4.45312Z" fill="var(--fill-0, white)"/>
<path id="Vector_22" d="M8.57725 4.45312H7.42261V5.60776H8.57725V4.45312Z" fill="var(--fill-0, white)"/>
<path id="Vector_23" d="M7.09287 5.9375H5.93823V7.09214H7.09287V5.9375Z" fill="var(--fill-0, white)"/>
<path id="Vector_24" d="M8.57725 5.9375H7.42261V7.09214H8.57725V5.9375Z" fill="var(--fill-0, white)"/>
<path id="Vector_25" d="M7.09275 7.42188H5.93811V8.57651H7.09275V7.42188Z" fill="var(--fill-0, white)"/>
<path id="Vector_26" d="M8.57737 7.42188H7.42273V8.57651H8.57737V7.42188Z" fill="var(--fill-0, white)"/>
<path id="Vector_27" d="M7.09275 8.90625H5.93811V10.0609H7.09275V8.90625Z" fill="var(--fill-0, white)"/>
<path id="Vector_28" d="M8.57737 8.90625H7.42273V10.0609H8.57737V8.90625Z" fill="var(--fill-0, white)"/>
<path id="Vector_29" d="M7.09275 10.3906H5.93811V11.5453H7.09275V10.3906Z" fill="var(--fill-0, white)"/>
<path id="Vector_30" d="M8.57737 10.3906H7.42273V11.5453H8.57737V10.3906Z" fill="var(--fill-0, white)"/>
<path id="Vector_31" d="M7.09287 11.875H5.93823V13.0296H7.09287V11.875Z" fill="var(--fill-0, white)"/>
<path id="Vector_32" d="M8.57725 11.875H7.42261V13.0296H8.57725V11.875Z" fill="var(--fill-0, white)"/>
<path id="Vector_33" d="M7.09287 13.3594H5.93823V14.514H7.09287V13.3594Z" fill="var(--fill-0, white)"/>
<path id="Vector_34" d="M8.57725 13.3594H7.42261V14.514H8.57725V13.3594Z" fill="var(--fill-0, white)"/>
<path id="Vector_35" d="M7.09287 14.8438H5.93823V15.9984H7.09287V14.8438Z" fill="var(--fill-0, white)"/>
<path id="Vector_36" d="M8.57725 14.8438H7.42261V15.9984H8.57725V14.8438Z" fill="var(--fill-0, white)"/>
<path id="Vector_37" d="M10.0619 4.45312H8.90723V5.60776H10.0619V4.45312Z" fill="var(--fill-0, white)"/>
<path id="Vector_38" d="M11.5465 4.45312H10.3918V5.60776H11.5465V4.45312Z" fill="var(--fill-0, white)"/>
<path id="Vector_39" d="M11.5465 5.9375H10.3918V7.09214H11.5465V5.9375Z" fill="var(--fill-0, white)"/>
<path id="Vector_40" d="M13.0309 5.9375H11.8762V7.09214H13.0309V5.9375Z" fill="var(--fill-0, white)"/>
<path id="Vector_41" d="M13.031 7.42188H11.8763V8.57651H13.031V7.42188Z" fill="var(--fill-0, white)"/>
<path id="Vector_42" d="M14.5155 7.42188H13.3608V8.57651H14.5155V7.42188Z" fill="var(--fill-0, white)"/>
<path id="Vector_43" d="M16 7.42188H14.8453V8.57651H16V7.42188Z" fill="var(--fill-0, white)"/>
<path id="Vector_44" d="M14.5155 8.90625H13.3608V10.0609H14.5155V8.90625Z" fill="var(--fill-0, white)"/>
<path id="Vector_45" d="M16 8.90625H14.8453V10.0609H16V8.90625Z" fill="var(--fill-0, white)"/>
<path id="Vector_46" d="M14.5155 10.3906H13.3608V11.5453H14.5155V10.3906Z" fill="var(--fill-0, white)"/>
<path id="Vector_47" d="M16 10.3906H14.8453V11.5453H16V10.3906Z" fill="var(--fill-0, white)"/>
<path id="Vector_48" d="M14.5155 11.875H13.3608V13.0296H14.5155V11.875Z" fill="var(--fill-0, white)"/>
<path id="Vector_49" d="M16.0001 11.875H14.8455V13.0296H16.0001V11.875Z" fill="var(--fill-0, white)"/>
<path id="Vector_50" d="M14.5155 13.3594H13.3608V14.514H14.5155V13.3594Z" fill="var(--fill-0, white)"/>
<path id="Vector_51" d="M16.0001 13.3594H14.8455V14.514H16.0001V13.3594Z" fill="var(--fill-0, white)"/>
<path id="Vector_52" d="M14.5155 14.8438H13.3608V15.9984H14.5155V14.8438Z" fill="var(--fill-0, white)"/>
<path id="Vector_53" d="M16.0001 14.8438H14.8455V15.9984H16.0001V14.8438Z" fill="var(--fill-0, white)"/>
</g>
</svg>
