<svg preserveAspectRatio="none" width="100%" height="100%" overflow="visible" style="display: block;" viewBox="0 0 16 16" fill="none" xmlns="http://www.w3.org/2000/svg">
<g id="Icon">
<path id="Vector" d="M5.77778 0H5V0.777778H5.77778V0Z" fill="var(--fill-0, white)"/>
<path id="Vector_2" d="M6.77778 0H6V0.777778H6.77778V0Z" fill="var(--fill-0, white)"/>
<path id="Vector_3" d="M7.77778 0H7V0.777778H7.77778V0Z" fill="var(--fill-0, white)"/>
<path id="Vector_4" d="M4.77778 1H4V1.77778H4.77778V1Z" fill="var(--fill-0, white)"/>
<path id="Vector_5" d="M5.77778 1H5V1.77778H5.77778V1Z" fill="var(--fill-0, white)"/>
<path id="Vector_6" d="M6.77778 1H6V1.77778H6.77778V1Z" fill="var(--fill-0, white)"/>
<path id="Vector_7" d="M7.77778 1H7V1.77778H7.77778V1Z" fill="var(--fill-0, white)"/>
<path id="Vector_8" d="M8.77778 1H8V1.77778H8.77778V1Z" fill="var(--fill-0, white)"/>
<path id="Vector_9" d="M4.77778 2H4V2.77778H4.77778V2Z" fill="var(--fill-0, white)"/>
<path id="Vector_10" d="M8.77778 2H8V2.77778H8.77778V2Z" fill="var(--fill-0, white)"/>
<path id="Vector_11" d="M4.77778 3H4V3.77778H4.77778V3Z" fill="var(--fill-0, white)"/>
<path id="Vector_12" d="M5.77778 3H5V3.77778H5.77778V3Z" fill="var(--fill-0, white)"/>
<path id="Vector_13" d="M6.77778 3H6V3.77778H6.77778V3Z" fill="var(--fill-0, white)"/>
<path id="Vector_14" d="M7.77778 3H7V3.77778H7.77778V3Z" fill="var(--fill-0, white)"/>
<path id="Vector_15" d="M8.77778 3H8V3.77778H8.77778V3Z" fill="var(--fill-0, white)"/>
<path id="Vector_16" d="M6.77778 4H6V4.77778H6.77778V4Z" fill="var(--fill-0, white)"/>
<path id="Vector_17" d="M7.77778 4H7V4.77778H7.77778V4Z" fill="var(--fill-0, white)"/>
<path id="Vector_18" d="M6.77778 5H6V5.77778H6.77778V5Z" fill="var(--fill-0, white)"/>
<path id="Vector_19" d="M7.77778 5H7V5.77778H7.77778V5Z" fill="var(--fill-0, white)"/>
<path id="Vector_20" d="M7.77778 6H7V6.77778H7.77778V6Z" fill="var(--fill-0, white)"/>
<path id="Vector_21" d="M8.77778 6H8V6.77778H8.77778V6Z" fill="var(--fill-0, white)"/>
<path id="Vector_22" d="M7.77778 7H7V7.77778H7.77778V7Z" fill="var(--fill-0, white)"/>
<path id="Vector_23" d="M8.77778 7H8V7.77778H8.77778V7Z" fill="var(--fill-0, white)"/>
<path id="Vector_24" d="M8.77778 8H8V8.77778H8.77778V8Z" fill="var(--fill-0, white)"/>
<path id="Vector_25" d="M9.77778 8H9V8.77778H9.77778V8Z" fill="var(--fill-0, white)"/>
<path id="Vector_26" d="M8.77778 9H8V9.77778H8.77778V9Z" fill="var(--fill-0, white)"/>
<path id="Vector_27" d="M9.77778 9H9V9.77778H9.77778V9Z" fill="var(--fill-0, white)"/>
<path id="Vector_28" d="M8.77778 10H8V10.7778H8.77778V10Z" fill="var(--fill-0, white)"/>
<path id="Vector_29" d="M9.77778 10H9V10.7778H9.77778V10Z" fill="var(--fill-0, white)"/>
<path id="Vector_30" d="M6.77778 11H6V11.7778H6.77778V11Z" fill="var(--fill-0, white)"/>
<path id="Vector_31" d="M7.77778 11H7V11.7778H7.77778V11Z" fill="var(--fill-0, white)"/>
<path id="Vector_32" d="M8.77778 11H8V11.7778H8.77778V11Z" fill="var(--fill-0, white)"/>
<path id="Vector_33" d="M9.77778 11H9V11.7778H9.77778V11Z" fill="var(--fill-0, white)"/>
<path id="Vector_34" d="M10.7778 11H10V11.7778H10.7778V11Z" fill="var(--fill-0, white)"/>
<path id="Vector_35" d="M6.77778 12H6V12.7778H6.77778V12Z" fill="var(--fill-0, white)"/>
<path id="Vector_36" d="M10.7778 12H10V12.7778H10.7778V12Z" fill="var(--fill-0, white)"/>
<path id="Vector_37" d="M6.77778 13H6V13.7778H6.77778V13Z" fill="var(--fill-0, white)"/>
<path id="Vector_38" d="M7.77778 13H7V13.7778H7.77778V13Z" fill="var(--fill-0, white)"/>
<path id="Vector_39" d="M8.77778 13H8V13.7778H8.77778V13Z" fill="var(--fill-0, white)"/>
<path id="Vector_40" d="M9.77778 13H9V13.7778H9.77778V13Z" fill="var(--fill-0, white)"/>
<path id="Vector_41" d="M10.7778 13H10V13.7778H10.7778V13Z" fill="var(--fill-0, white)"/>
<path id="Vector_42" d="M7.77778 14H7V14.7778H7.77778V14Z" fill="var(--fill-0, white)"/>
<path id="Vector_43" d="M8.77778 14H8V14.7778H8.77778V14Z" fill="var(--fill-0, white)"/>
<path id="Vector_44" d="M9.77778 14H9V14.7778H9.77778V14Z" fill="var(--fill-0, white)"/>
</g>
</svg>
