<svg preserveAspectRatio="none" width="100%" height="100%" overflow="visible" style="display: block;" viewBox="0 0 16 16" fill="none" xmlns="http://www.w3.org/2000/svg">
<g id="Icon">
<path id="Vector" d="M1.77778 1H1V1.77778H1.77778V1Z" fill="var(--fill-0, white)"/>
<path id="Vector_2" d="M2.77778 1H2V1.77778H2.77778V1Z" fill="var(--fill-0, white)"/>
<path id="Vector_3" d="M3.77778 1H3V1.77778H3.77778V1Z" fill="var(--fill-0, white)"/>
<path id="Vector_4" d="M4.77778 1H4V1.77778H4.77778V1Z" fill="var(--fill-0, white)"/>
<path id="Vector_5" d="M5.77778 1H5V1.77778H5.77778V1Z" fill="var(--fill-0, white)"/>
<path id="Vector_6" d="M6.77778 1H6V1.77778H6.77778V1Z" fill="var(--fill-0, white)"/>
<path id="Vector_7" d="M7.77778 1H7V1.77778H7.77778V1Z" fill="var(--fill-0, white)"/>
<path id="Vector_8" d="M8.77778 1H8V1.77778H8.77778V1Z" fill="var(--fill-0, white)"/>
<path id="Vector_9" d="M9.77778 1H9V1.77778H9.77778V1Z" fill="var(--fill-0, white)"/>
<path id="Vector_10" d="M10.7778 1H10V1.77778H10.7778V1Z" fill="var(--fill-0, white)"/>
<path id="Vector_11" d="M11.7778 1H11V1.77778H11.7778V1Z" fill="var(--fill-0, white)"/>
<path id="Vector_12" d="M12.7778 1H12V1.77778H12.7778V1Z" fill="var(--fill-0, white)"/>
<path id="Vector_13" d="M13.7778 1H13V1.77778H13.7778V1Z" fill="var(--fill-0, white)"/>
<path id="Vector_14" d="M14.7778 1H14V1.77778H14.7778V1Z" fill="var(--fill-0, white)"/>
<path id="Vector_15" d="M1.77778 2H1V2.77778H1.77778V2Z" fill="var(--fill-0, white)"/>
<path id="Vector_16" d="M2.77778 2H2V2.77778H2.77778V2Z" fill="var(--fill-0, white)"/>
<path id="Vector_17" d="M13.7778 2H13V2.77778H13.7778V2Z" fill="var(--fill-0, white)"/>
<path id="Vector_18" d="M14.7778 2H14V2.77778H14.7778V2Z" fill="var(--fill-0, white)"/>
<path id="Vector_19" d="M1.77778 3H1V3.77778H1.77778V3Z" fill="var(--fill-0, white)"/>
<path id="Vector_20" d="M3.77778 3H3V3.77778H3.77778V3Z" fill="var(--fill-0, white)"/>
<path id="Vector_21" d="M12.7778 3H12V3.77778H12.7778V3Z" fill="var(--fill-0, white)"/>
<path id="Vector_22" d="M14.7778 3H14V3.77778H14.7778V3Z" fill="var(--fill-0, white)"/>
<path id="Vector_23" d="M1.77778 4H1V4.77778H1.77778V4Z" fill="var(--fill-0, white)"/>
<path id="Vector_24" d="M4.77778 4H4V4.77778H4.77778V4Z" fill="var(--fill-0, white)"/>
<path id="Vector_25" d="M11.7778 4H11V4.77778H11.7778V4Z" fill="var(--fill-0, white)"/>
<path id="Vector_26" d="M14.7778 4H14V4.77778H14.7778V4Z" fill="var(--fill-0, white)"/>
<path id="Vector_27" d="M1.77778 5H1V5.77778H1.77778V5Z" fill="var(--fill-0, white)"/>
<path id="Vector_28" d="M5.77778 5H5V5.77778H5.77778V5Z" fill="var(--fill-0, white)"/>
<path id="Vector_29" d="M10.7778 5H10V5.77778H10.7778V5Z" fill="var(--fill-0, white)"/>
<path id="Vector_30" d="M14.7778 5H14V5.77778H14.7778V5Z" fill="var(--fill-0, white)"/>
<path id="Vector_31" d="M1.77778 6H1V6.77778H1.77778V6Z" fill="var(--fill-0, white)"/>
<path id="Vector_32" d="M6.77778 6H6V6.77778H6.77778V6Z" fill="var(--fill-0, white)"/>
<path id="Vector_33" d="M9.77778 6H9V6.77778H9.77778V6Z" fill="var(--fill-0, white)"/>
<path id="Vector_34" d="M14.7778 6H14V6.77778H14.7778V6Z" fill="var(--fill-0, white)"/>
<path id="Vector_35" d="M1.77778 7H1V7.77778H1.77778V7Z" fill="var(--fill-0, white)"/>
<path id="Vector_36" d="M7.77778 7H7V7.77778H7.77778V7Z" fill="var(--fill-0, white)"/>
<path id="Vector_37" d="M8.77778 7H8V7.77778H8.77778V7Z" fill="var(--fill-0, white)"/>
<path id="Vector_38" d="M14.7778 7H14V7.77778H14.7778V7Z" fill="var(--fill-0, white)"/>
<path id="Vector_39" d="M1.77778 8H1V8.77778H1.77778V8Z" fill="var(--fill-0, white)"/>
<path id="Vector_40" d="M14.7778 8H14V8.77778H14.7778V8Z" fill="var(--fill-0, white)"/>
<path id="Vector_41" d="M1.77778 9H1V9.77778H1.77778V9Z" fill="var(--fill-0, white)"/>
<path id="Vector_42" d="M14.7778 9H14V9.77778H14.7778V9Z" fill="var(--fill-0, white)"/>
<path id="Vector_43" d="M1.77778 10H1V10.7778H1.77778V10Z" fill="var(--fill-0, white)"/>
<path id="Vector_44" d="M14.7778 10H14V10.7778H14.7778V10Z" fill="var(--fill-0, white)"/>
<path id="Vector_45" d="M1.77778 11H1V11.7778H1.77778V11Z" fill="var(--fill-0, white)"/>
<path id="Vector_46" d="M14.7778 11H14V11.7778H14.7778V11Z" fill="var(--fill-0, white)"/>
<path id="Vector_47" d="M1.77778 12H1V12.7778H1.77778V12Z" fill="var(--fill-0, white)"/>
<path id="Vector_48" d="M14.7778 12H14V12.7778H14.7778V12Z" fill="var(--fill-0, white)"/>
<path id="Vector_49" d="M1.77778 13H1V13.7778H1.77778V13Z" fill="var(--fill-0, white)"/>
<path id="Vector_50" d="M14.7778 13H14V13.7778H14.7778V13Z" fill="var(--fill-0, white)"/>
<path id="Vector_51" d="M1.77778 14H1V14.7778H1.77778V14Z" fill="var(--fill-0, white)"/>
<path id="Vector_52" d="M2.77778 14H2V14.7778H2.77778V14Z" fill="var(--fill-0, white)"/>
<path id="Vector_53" d="M3.77778 14H3V14.7778H3.77778V14Z" fill="var(--fill-0, white)"/>
<path id="Vector_54" d="M4.77778 14H4V14.7778H4.77778V14Z" fill="var(--fill-0, white)"/>
<path id="Vector_55" d="M5.77778 14H5V14.7778H5.77778V14Z" fill="var(--fill-0, white)"/>
<path id="Vector_56" d="M6.77778 14H6V14.7778H6.77778V14Z" fill="var(--fill-0, white)"/>
<path id="Vector_57" d="M7.77778 14H7V14.7778H7.77778V14Z" fill="var(--fill-0, white)"/>
<path id="Vector_58" d="M8.77778 14H8V14.7778H8.77778V14Z" fill="var(--fill-0, white)"/>
<path id="Vector_59" d="M9.77778 14H9V14.7778H9.77778V14Z" fill="var(--fill-0, white)"/>
<path id="Vector_60" d="M10.7778 14H10V14.7778H10.7778V14Z" fill="var(--fill-0, white)"/>
<path id="Vector_61" d="M11.7778 14H11V14.7778H11.7778V14Z" fill="var(--fill-0, white)"/>
<path id="Vector_62" d="M12.7778 14H12V14.7778H12.7778V14Z" fill="var(--fill-0, white)"/>
<path id="Vector_63" d="M13.7778 14H13V14.7778H13.7778V14Z" fill="var(--fill-0, white)"/>
<path id="Vector_64" d="M14.7778 14H14V14.7778H14.7778V14Z" fill="var(--fill-0, white)"/>
</g>
</svg>
