<svg preserveAspectRatio="none" width="100%" height="100%" overflow="visible" style="display: block;" viewBox="0 0 241 196" fill="none" xmlns="http://www.w3.org/2000/svg">
<path id="Union" d="M123.063 78C123.063 82.4183 126.645 86 131.063 86H239.377C240.273 86 241 86.7267 241 87.623C241 88.5194 240.273 89.2461 239.377 89.2461H216.59C214.798 89.2461 213.345 90.6992 213.345 92.4917C213.345 94.2842 214.798 95.7373 216.59 95.7373H233C237.418 95.7373 241 99.319 241 103.737V180.426C241 184.844 237.418 188.426 233 188.426H211.85C210.057 188.426 208.604 189.879 208.604 191.672C208.604 193.465 210.057 194.918 211.85 194.918H240.459C240.758 194.918 241 195.16 241 195.459C241 195.758 240.758 196 240.459 196H8C3.58172 196 0 192.418 0 188V168.385C0 165.112 2.65328 162.459 5.92627 162.459C9.19926 162.459 11.8525 159.781 11.8525 156.508C11.8525 153.235 9.19926 150.558 5.92627 150.558C2.65328 150.558 0 147.904 0 144.631V100.131C0 95.7126 3.58172 92.1309 8 92.1309H38.8135C40.5065 92.1309 41.8789 90.7584 41.8789 89.0654C41.8789 87.3724 43.2513 86 44.9443 86H108.91C113.328 86 116.91 82.4183 116.91 78V48C116.91 43.5817 113.328 40 108.91 40H34.0518C32.9472 40 32.0518 39.1046 32.0518 38C32.0518 36.8954 31.1563 36 30.0518 36H28.5259C26.5786 36 25 34.4214 25 32.4741V16.9331C25 12.5518 28.5518 9 32.9331 9H36.3662C38.8515 9 40.8662 6.98528 40.8662 4.5C40.8662 2.01472 42.8809 0 45.3662 0H203.077C205.01 0 206.577 1.567 206.577 3.5C206.577 5.433 208.144 7 210.077 7H210.984C213.418 7 215.391 8.97296 215.391 11.4067V31.4746C215.391 33.4216 213.812 35 211.865 35H210.84C209.459 35 208.34 36.1193 208.34 37.5C208.34 38.8807 207.221 40 205.84 40H131.063C126.645 40 123.063 43.5817 123.063 48V78ZM3.16113 193.295C3.16113 194.191 3.8878 194.918 4.78418 194.918H8.64941C9.5458 194.918 10.2725 194.191 10.2725 193.295C10.2725 192.399 9.5458 191.672 8.64941 191.672H4.78418C3.8878 191.672 3.16113 192.399 3.16113 193.295ZM32.0518 30C32.0518 31.6569 33.3949 33 35.0518 33H39.6289C41.2858 33 42.6289 31.6569 42.6289 30C42.6289 28.3431 41.2858 27 39.6289 27H35.0518C33.3949 27 32.0518 28.3431 32.0518 30Z" fill="var(--fill-0, #C59898)"/>
</svg>
