<svg preserveAspectRatio="none" width="100%" height="100%" overflow="visible" style="display: block;" viewBox="0 0 235 195" fill="none" xmlns="http://www.w3.org/2000/svg">
<path id="Union" d="M219.591 89.1475C219.591 91.438 221.448 93.2949 223.738 93.2949H227.295C231.551 93.2949 235 96.7444 235 101V148.344C235 152.599 231.551 156.049 227.295 156.049H225.722C222.336 156.049 219.591 158.794 219.591 162.18C219.591 165.566 222.336 168.312 225.722 168.312H227.295C231.551 168.312 235 171.761 235 176.016V180.869C235 185.287 231.418 188.869 227 188.869H190.295C188.602 188.869 187.229 190.242 187.229 191.935C187.229 193.628 185.857 195 184.164 195H53.1475C51.4545 195 50.082 193.628 50.082 191.935C50.082 190.242 48.7096 188.869 47.0166 188.869H8C3.58172 188.869 0 185.287 0 180.869V126.459C0 123.48 2.41478 121.065 5.39355 121.065C8.37233 121.065 10.7871 118.651 10.7871 115.672V114.197C10.7871 111.218 8.37233 108.804 5.39355 108.804C2.41478 108.804 0 106.389 0 103.41V99.4922C0 95.0739 3.58172 91.4922 8 91.4922H19.8682C21.6609 91.4922 23.1143 90.0389 23.1143 88.2461C23.1143 86.4533 24.5676 85 26.3604 85H106C110.418 85 114 81.4183 114 77V48C114 43.5817 110.418 40 106 40H57C52.5817 40 49 36.4183 49 32V13.8057C49 11.7039 50.7039 10 52.8057 10C54.9075 10 56.6113 8.29615 56.6113 6.19434V5C56.6113 2.23858 58.8499 0 61.6113 0H133.259C134.363 0 135.259 0.895431 135.259 2C135.259 3.10457 136.154 4 137.259 4H151.019C152.123 4 153.019 3.10457 153.019 2C153.019 0.895431 153.914 0 155.019 0H179C182.866 0 186 3.13401 186 7V10.8286C186 12.5801 184.58 14 182.829 14C181.077 14 179.657 15.4199 179.657 17.1714V22.8286C179.657 24.5801 181.077 26 182.829 26C184.58 26 186 27.4199 186 29.1714V33C186 36.866 182.866 40 179 40H165.936C165.107 40 164.436 39.3284 164.436 38.5C164.436 37.6716 163.764 37 162.936 37H148.176C147.347 37 146.676 37.6716 146.676 38.5C146.676 39.3284 146.004 40 145.176 40H128C123.582 40 120 43.5817 120 48V77C120 81.4183 123.582 85 128 85H215.443C217.734 85 219.591 86.8569 219.591 89.1475ZM52.8057 35C52.8057 36.6569 54.1488 38 55.8057 38H57.417C59.0738 38 60.417 36.6569 60.417 35C60.417 33.3431 59.0738 32 57.417 32H55.8057C54.1488 32 52.8057 33.3431 52.8057 35Z" fill="var(--fill-0, #BBF7A1)"/>
</svg>
