<svg preserveAspectRatio="none" width="100%" height="100%" overflow="visible" style="display: block;" viewBox="0 0 235.001 196" fill="none" xmlns="http://www.w3.org/2000/svg">
<path id="Union" d="M120.001 78C120.001 82.4183 123.583 86 128.001 86H227.001C231.419 86 235.001 89.5817 235.001 94V117.156C235.001 119.071 233.449 120.623 231.534 120.623C229.62 120.623 228.067 122.175 228.067 124.09V142.041C228.067 143.956 229.62 145.508 231.534 145.508C233.449 145.508 235.001 147.06 235.001 148.975V178.623C235.001 183.041 231.419 186.623 227.001 186.623H208.1C205.51 186.623 203.411 188.722 203.411 191.312C203.411 193.901 201.312 196 198.723 196H15.5259C13.3348 196 11.5586 194.224 11.5586 192.033C11.5586 189.842 9.78238 188.065 7.59131 188.065H5.7793C2.58748 188.065 0 185.478 0 182.286V152.607C0 150.479 1.72506 148.754 3.85303 148.754H4.64062C6.33361 148.754 7.70605 147.381 7.70605 145.688C7.70605 143.995 6.33361 142.623 4.64062 142.623H3.85303C1.72506 142.623 0 140.898 0 138.77V100.853C0 96.4343 3.58172 92.8525 8 92.8525H35.0991C36.9914 92.8525 38.5254 91.3185 38.5254 89.4263C38.5254 87.534 40.0594 86 41.9517 86H106.001C110.419 86 114.001 82.4183 114.001 78V48C114.001 43.5817 110.419 40 106.001 40H59.0205C57.3637 40 56.0205 38.6569 56.0205 37C56.0205 35.3431 54.6774 34 53.0205 34H52.1782C50.0562 34 48.3359 32.2798 48.3359 30.1577V11.4829C48.3359 9.00707 50.343 7 52.8188 7H53.8018C55.7348 7 57.3018 5.433 57.3018 3.5C57.3018 1.567 58.8688 0 60.8018 0H98.8506C99.9552 0 100.851 0.895431 100.851 2C100.851 3.10457 101.746 4 102.851 4H106.536C107.641 4 108.536 3.10457 108.536 2C108.536 0.895431 109.432 0 110.536 0H175.983C177.64 0 178.983 1.34315 178.983 3C178.983 4.65685 180.327 6 181.983 6H182.826C184.948 6 186.669 7.72047 186.669 9.84277V32.7979C186.669 34.5663 185.235 36 183.467 36H182.265C181.16 36 180.265 36.8954 180.265 38C180.265 39.1046 179.369 40 178.265 40H149.743C148.915 40 148.243 39.3284 148.243 38.5C148.243 37.6716 147.572 37 146.743 37H134.373C133.545 37 132.873 37.6716 132.873 38.5C132.873 39.3284 132.201 40 131.373 40H126.437C122.882 40 120.001 42.8815 120.001 46.436V78ZM208.805 92.6724C208.805 95.1622 210.823 97.1807 213.313 97.1807H223.558C226.048 97.1807 228.066 95.1622 228.066 92.6724C228.066 90.1825 226.048 88.1641 223.558 88.1641H213.313C210.823 88.1641 208.805 90.1825 208.805 92.6724Z" fill="var(--fill-0, #6FC1EA)"/>
</svg>
