<svg preserveAspectRatio="none" width="100%" height="100%" overflow="visible" style="display: block;" viewBox="0 0 235 196" fill="none" xmlns="http://www.w3.org/2000/svg">
<path id="Union" d="M120 78C120 82.4183 123.582 86 128 86H227C231.418 86 235 89.5817 235 94V127.975C235 129.89 233.448 131.442 231.533 131.442C229.618 131.442 228.065 132.995 228.065 134.91V145.287C228.065 147.202 229.618 148.754 231.533 148.754C233.448 148.754 235 150.306 235 152.221V178.623C235 183.041 231.418 186.623 227 186.623H200.393C197.803 186.623 195.704 188.722 195.704 191.312C195.704 193.901 193.605 196 191.016 196H1.8418C0.824606 196 0 195.175 0 194.158C0 193.141 0.824601 192.316 1.8418 192.316H6.65527C9.54344 192.316 11.8848 189.975 11.8848 187.087C11.8848 184.199 9.54344 181.857 6.65527 181.857H5.94238C2.6605 181.857 0 179.197 0 175.915V118.155C0 114.538 2.93201 111.606 6.54883 111.606C10.1656 111.606 13.0977 108.674 13.0977 105.058V94C13.0977 89.5817 16.6794 86 21.0977 86H106C110.418 86 114 82.4183 114 78V48C114 43.5817 110.418 40 106 40H33.666C29.2477 40 25.666 36.4183 25.666 32V15.1299C25.666 12.2967 27.9627 10 30.7959 10H30.9258C33.6872 10 35.9258 7.76142 35.9258 5C35.9258 2.23858 38.1644 0 40.9258 0H139.938C141.043 0 141.938 0.895431 141.938 2C141.938 3.10457 142.834 4 143.938 4H163.876C164.981 4 165.876 3.10457 165.876 2C165.876 0.895431 166.771 0 167.876 0H203.333C207.199 0 210.333 3.13401 210.333 7V9.7251C210.333 12.0861 208.419 14 206.058 14C203.697 14 201.783 15.9139 201.783 18.2749V21.7251C201.783 24.0861 203.697 26 206.058 26C208.419 26 210.333 27.9139 210.333 30.2749V33C210.333 36.866 207.199 40 203.333 40H182.766C181.937 40 181.266 39.3284 181.266 38.5C181.266 37.6716 180.594 37 179.766 37H158.827C157.999 37 157.327 37.6716 157.327 38.5C157.327 39.3284 156.656 40 155.827 40H128C123.582 40 120 43.5817 120 48V78ZM220.36 90.6885C220.36 92.0827 221.491 93.2129 222.885 93.2129H228.623C230.017 93.2129 231.147 92.0827 231.147 90.6885C231.147 89.2943 230.017 88.1641 228.623 88.1641H222.885C221.491 88.1641 220.36 89.2943 220.36 90.6885ZM30.7959 35C30.7959 36.6569 32.139 38 33.7959 38H38.0557C39.7125 38 41.0557 36.6569 41.0557 35C41.0557 33.3431 39.7125 32 38.0557 32H33.7959C32.139 32 30.7959 33.3431 30.7959 35Z" fill="var(--fill-0, #C498DF)"/>
</svg>
