<svg preserveAspectRatio="none" width="100%" height="100%" overflow="visible" style="display: block;" viewBox="0 0 443 40" fill="none" xmlns="http://www.w3.org/2000/svg">
<path id="Subtract" d="M443 7C443 10.866 439.866 14 436 14H428.49C425.177 14 422.49 16.6863 422.49 20C422.49 23.3137 425.177 26 428.49 26H436C439.866 26 443 29.134 443 33C443 36.866 439.866 40 436 40H374.768C373.939 40 373.268 39.3284 373.268 38.5C373.268 37.6716 372.596 37 371.768 37H317.342C316.513 37 315.842 37.6716 315.842 38.5C315.842 39.3284 315.17 40 314.342 40H7.99999C3.58171 40 0 36.4183 0 32V18C0 13.5817 3.58172 10 8 10H19.6113C22.3728 10 24.6113 7.76142 24.6113 5C24.6113 2.23858 26.8499 0 29.6113 0H276.926C278.03 0 278.926 0.895431 278.926 2C278.926 3.10457 279.821 4 280.926 4H334.352C335.456 4 336.352 3.10457 336.352 2C336.352 0.895431 337.247 0 338.352 0H436C439.866 0 443 3.13401 443 7ZM12.3057 35C12.3057 36.6569 13.6488 38 15.3057 38H33.917C35.5738 38 36.917 36.6569 36.917 35C36.917 33.3431 35.5738 32 33.917 32H15.3057C13.6488 32 12.3057 33.3431 12.3057 35Z" fill="var(--fill-0, #BC690B)"/>
</svg>
