<svg preserveAspectRatio="none" width="100%" height="100%" overflow="visible" style="display: block;" viewBox="0 0 346 40" fill="none" xmlns="http://www.w3.org/2000/svg">
<path id="Subtract" d="M346 7C346 10.866 342.866 14 339 14H335.981C332.668 14 329.981 16.6863 329.981 20C329.981 23.3137 332.668 26 335.981 26H339C342.866 26 346 29.134 346 33C346 36.866 342.866 40 339 40H293.036C292.208 40 291.536 39.3284 291.536 38.5C291.536 37.6716 290.865 37 290.036 37H248.185C247.356 37 246.685 37.6716 246.685 38.5C246.685 39.3284 246.013 40 245.185 40H7.99999C3.58172 40 0 36.4183 0 32V18C0 13.5817 3.58172 10 8 10H14.2217C16.9831 10 19.2217 7.76142 19.2217 5C19.2217 2.23858 21.4603 0 24.2217 0H215.852C216.956 0 217.852 0.895431 217.852 2C217.852 3.10457 218.747 4 219.852 4H260.703C261.808 4 262.703 3.10457 262.703 2C262.703 0.895431 263.599 0 264.703 0H339C342.866 0 346 3.13401 346 7ZM9.61133 35C9.61133 36.6569 10.9545 38 12.6113 38H25.834C27.4908 38 28.834 36.6569 28.834 35C28.834 33.3431 27.4908 32 25.834 32H12.6113C10.9545 32 9.61133 33.3431 9.61133 35Z" fill="var(--fill-0, #4859A4)"/>
</svg>
