<svg preserveAspectRatio="none" width="100%" height="100%" overflow="visible" style="display: block;" viewBox="0 0 305 160" fill="none" xmlns="http://www.w3.org/2000/svg">
<path id="Subtract" d="M305 61.5986C305 64.0839 302.985 66.0986 300.5 66.0986C298.015 66.0986 296 68.1134 296 70.5986V86.7783C296 89.2636 298.015 91.2783 300.5 91.2783C302.985 91.2783 305 93.293 305 95.7783V134.36C305 140.988 299.627 146.36 293 146.36H260.82C257.053 146.36 254 149.414 254 153.18C254 156.947 250.947 160 247.18 160H9.70508C4.34511 160 0 155.655 0 150.295V149.09C0 144.395 3.80558 140.59 8.5 140.59H9.39355C13.5945 140.59 17 137.184 17 132.983C17 128.782 13.5945 125.377 9.39355 125.377H8.5C3.80558 125.377 0 121.571 0 116.877V45.7461C0 41.0517 3.80558 37.2461 8.5 37.2461C13.1944 37.2461 17 33.4405 17 28.7461V12C17 5.37258 22.3726 0 29 0H293C299.627 0 305 5.37258 305 12V61.5986ZM286 6.81982C286 8.84801 287.644 10.4922 289.672 10.4922H296.328C298.356 10.4922 300 8.84801 300 6.81982C300 4.79163 298.356 3.14746 296.328 3.14746H289.672C287.644 3.14746 286 4.79163 286 6.81982Z" fill="var(--fill-0, #9247C1)"/>
</svg>
