<svg preserveAspectRatio="none" width="100%" height="100%" overflow="visible" style="display: block;" viewBox="0 0 305 138" fill="none" xmlns="http://www.w3.org/2000/svg">
<path id="Subtract" d="M285 5.20312C285 8.07673 287.33 10.4062 290.203 10.4062H295C300.523 10.4062 305 14.8834 305 20.4062V79.1348C305 84.6576 300.523 89.1348 295 89.1348H292.691C288.444 89.1348 285 92.5783 285 96.8262C285 101.074 288.444 104.518 292.691 104.518H295C300.523 104.518 305 108.995 305 114.518V118.309C305 124.936 299.627 130.309 293 130.309H246.846C244.722 130.309 243 132.03 243 134.154C243 136.278 241.278 138 239.154 138H68.8457C66.7218 138 65 136.278 65 134.154C65 132.03 63.2782 130.309 61.1543 130.309H12C5.37258 130.309 0 124.936 0 118.309V52.2461C0 48.3801 3.13401 45.2461 7 45.2461C10.866 45.2461 14 42.1121 14 38.2461V36.8623C14 32.9963 10.866 29.8623 7 29.8623C3.13401 29.8623 0 26.7283 0 22.8623V19.0034C0 13.0062 4.86169 8.14453 10.8589 8.14453H25.9277C28.1768 8.14453 30 6.32132 30 4.07227C30 1.82322 31.8232 0 34.0723 0H279.797C282.67 0 285 2.32952 285 5.20312Z" fill="var(--fill-0, #368BBF)"/>
</svg>
