<svg preserveAspectRatio="none" width="100%" height="100%" overflow="visible" style="display: block;" viewBox="0 0 305 138" fill="none" xmlns="http://www.w3.org/2000/svg">
<path id="Subtract" d="M305 38.9365C305 41.4218 302.985 43.4365 300.5 43.4365C298.015 43.4365 296 45.4512 296 47.9365V70.1553C296 72.6406 298.015 74.6553 300.5 74.6553C302.985 74.6553 305 76.67 305 79.1553V114.236C305 120.864 299.627 126.236 293 126.236H269.882C266.633 126.236 264 128.87 264 132.118C264 135.367 261.367 138 258.118 138H19.9771C17.2283 138 15 135.772 15 133.023C15 130.274 12.7717 128.046 10.0229 128.046H7.5C3.35786 128.046 0 124.688 0 120.546V83.7275C0 80.9661 2.23858 78.7275 5 78.7275H6.1543C8.27822 78.7275 10 77.0058 10 74.8818C10 72.7579 8.27822 71.0361 6.1543 71.0361H5C2.23858 71.0361 0 68.7976 0 66.0361V20.5967C0 13.9693 5.37258 8.59668 12 8.59668H45.7017C48.0756 8.59668 50 6.67225 50 4.29834C50 1.92443 51.9244 0 54.2983 0H293C299.627 0 305 5.37258 305 12V38.9365ZM271 8.37061C271 11.4942 273.532 14.0264 276.656 14.0264H290.344C293.468 14.0264 296 11.4942 296 8.37061C296 5.24701 293.468 2.71484 290.344 2.71484H276.656C273.532 2.71484 271 5.24701 271 8.37061Z" fill="var(--fill-0, #C47C39)"/>
</svg>
