<svg preserveAspectRatio="none" width="100%" height="100%" overflow="visible" style="display: block;" viewBox="0 0 305 136" fill="none" xmlns="http://www.w3.org/2000/svg">
<path id="Subtract" d="M305 2.00635C305 3.11442 304.102 4.0127 302.994 4.0127H274.013C271.797 4.0127 270 5.80946 270 8.02588C270 10.2423 271.797 12.0391 274.013 12.0391H293C299.627 12.0391 305 17.4116 305 24.0391V114.636C305 121.263 299.627 126.636 293 126.636H268.013C265.797 126.636 264 128.433 264 130.649C264 132.865 265.797 134.662 268.013 134.662H304.331C304.701 134.662 305 134.962 305 135.331C305 135.701 304.701 136 304.331 136H12C5.37258 136 0 130.627 0 124V102.031C0 97.8891 3.42984 94.5312 7.57197 94.5312C11.6354 94.5312 15 91.2372 15 87.1738C15 83.1104 11.6354 79.8164 7.57197 79.8164C3.42984 79.8164 0 76.4585 0 72.3164V19.5801C0 12.9527 5.37258 7.58008 12 7.58008H49.21C51.3031 7.58008 53 5.88322 53 3.79004C53 1.69686 54.6969 0 56.79 0H302.994C304.102 0 305 0.898272 305 2.00635ZM4 132.656C4 133.764 4.89827 134.662 6.00635 134.662H10.9937C12.1017 134.662 13 133.764 13 132.656C13 131.548 12.1017 130.649 10.9937 130.649H6.00635C4.89827 130.649 4 131.548 4 132.656Z" fill="var(--fill-0, #BC6588)"/>
</svg>
