<svg preserveAspectRatio="none" width="100%" height="100%" overflow="visible" style="display: block;" viewBox="0 0 297 40" fill="none" xmlns="http://www.w3.org/2000/svg">
<path id="Subtract" d="M242 3.5C242 5.433 243.567 7 245.5 7H291C294.314 7 297 9.68629 297 13V26C297 29.3137 294.314 32 291 32H279C276.791 32 275 33.7909 275 36C275 38.2091 273.209 40 271 40H175.25C174.145 40 173.25 39.1046 173.25 38C173.25 36.8954 172.355 36 171.25 36H123C121.895 36 121 36.8954 121 38C121 39.1046 120.105 40 119 40H24C22.8954 40 22 39.1046 22 38C22 36.8954 21.1046 36 20 36H6C2.68629 36 0 33.3137 0 30V23C0 19.6863 2.68629 17 6 17H7.75C11.0637 17 13.75 14.3137 13.75 11V6C13.75 2.68629 16.4363 0 19.75 0H238.5C240.433 0 242 1.567 242 3.5Z" fill="var(--fill-0, #830081)"/>
</svg>
