<svg preserveAspectRatio="none" width="100%" height="100%" overflow="visible" style="display: block;" viewBox="0 0 126 32" fill="none" xmlns="http://www.w3.org/2000/svg">
<path id="Subtract" d="M126 8.28271C126 9.89346 124.694 11.1992 123.083 11.1992C121.473 11.1992 120.167 12.505 120.167 14.1157V17.8823C120.167 19.4931 121.473 20.7988 123.083 20.7988C124.694 20.7988 126 22.1046 126 23.7153V26.3994C126 29.4925 123.493 32 120.399 32H107.366C106.703 32 106.166 31.4627 106.166 30.7998C106.166 30.137 105.629 29.5996 104.966 29.5996H91.0332C90.3704 29.5996 89.833 30.137 89.833 30.7998C89.833 31.4627 89.2957 32 88.6328 32H6C2.68629 32 0 29.3137 0 26V11.5C0 9.567 1.567 8 3.5 8C5.433 8 7 6.433 7 4.5V4C7 1.79086 8.79086 0 11 0H77.7329C78.6166 0 79.333 0.716388 79.333 1.6001C79.333 2.48381 80.0494 3.2002 80.9331 3.2002H94.0659C94.9496 3.2002 95.666 2.48381 95.666 1.6001C95.666 0.716388 96.3824 0 97.2661 0H120.4C123.493 0 126 2.50703 126 5.59961V8.28271ZM3.5 27.9995C3.5 29.3249 4.57447 30.3994 5.8999 30.3994H8.1001C9.42553 30.3994 10.5 29.3249 10.5 27.9995C10.5 26.6741 9.42553 25.5996 8.1001 25.5996H5.8999C4.57447 25.5996 3.5 26.6741 3.5 27.9995Z" fill="var(--fill-0, #DFF3DC)"/>
</svg>
