<svg preserveAspectRatio="none" width="100%" height="100%" overflow="visible" style="display: block;" viewBox="0 0 115 40" fill="none" xmlns="http://www.w3.org/2000/svg">
<path id="Subtract" d="M115 11.3379C115 12.8081 113.808 14 112.338 14C110.868 14 109.676 15.1919 109.676 16.6621V23.3379C109.676 24.8081 110.868 26 112.338 26C113.808 26 115 27.1919 115 28.6621V34C115 37.3137 112.314 40 109 40H98.3984C97.57 40 96.8984 39.3284 96.8984 38.5C96.8984 37.6716 96.2269 37 95.3984 37H83.4912C82.6628 37 81.9912 37.6716 81.9912 38.5C81.9912 39.3284 81.3196 40 80.4912 40H6C2.68629 40 0 37.3137 0 34V13.1943C0 11.4302 1.43015 10 3.19434 10C4.95852 10 6.38867 8.56985 6.38867 6.80566V5C6.38867 2.23858 8.62725 0 11.3887 0H70.4072C71.5118 0 72.4072 0.895431 72.4072 2C72.4072 3.10457 73.3027 4 74.4072 4H85.3145C86.419 4 87.3145 3.10457 87.3145 2C87.3145 0.895431 88.2099 0 89.3145 0H109C112.314 0 115 2.68629 115 6V11.3379ZM3.19434 35C3.19434 36.6569 4.53748 38 6.19434 38H6.58301C8.23986 38 9.58301 36.6569 9.58301 35C9.58301 33.3431 8.23986 32 6.58301 32H6.19434C4.53748 32 3.19434 33.3431 3.19434 35Z" fill="var(--fill-0, #DFF3DC)"/>
</svg>
