<svg preserveAspectRatio="none" width="100%" height="100%" overflow="visible" style="display: block;" viewBox="0 0 126 32" fill="none" xmlns="http://www.w3.org/2000/svg">
<path id="Subtract" d="M126 8.28271C126 9.89346 124.694 11.1992 123.083 11.1992C121.473 11.1992 120.167 12.505 120.167 14.1157V17.8823C120.167 19.4931 121.473 20.7988 123.083 20.7988C124.694 20.7988 126 22.1046 126 23.7153V26.3994C126 29.4925 123.493 32 120.399 32H107.365C106.703 32 106.166 31.4631 106.166 30.8008C106.166 30.1385 105.629 29.6016 104.967 29.6016H91.0322C90.3699 29.6016 89.833 30.1385 89.833 30.8008C89.833 31.4631 89.2961 32 88.6338 32H6C2.68629 32 0 29.3137 0 26V11.498C0 9.56505 1.567 7.99805 3.5 7.99805C5.433 7.99805 7 6.43104 7 4.49805V3.99902C7 1.79042 8.79042 0 10.999 0H77.7339C78.6171 0 79.333 0.715951 79.333 1.59912C79.333 2.48229 80.049 3.19824 80.9321 3.19824H94.0669C94.9501 3.19824 95.666 2.48229 95.666 1.59912C95.666 0.715951 96.382 0 97.2651 0H120.4C123.493 0 126 2.50703 126 5.59961V8.28271ZM3.5 28.0015C3.5 29.3269 4.57447 30.4014 5.8999 30.4014H8.1001C9.42553 30.4014 10.5 29.3269 10.5 28.0015C10.5 26.676 9.42553 25.6016 8.1001 25.6016H5.8999C4.57447 25.6016 3.5 26.676 3.5 28.0015Z" fill="var(--fill-0, #F0F3E7)"/>
</svg>
