<svg preserveAspectRatio="none" width="100%" height="100%" overflow="visible" style="display: block;" viewBox="0 0 235 196" fill="none" xmlns="http://www.w3.org/2000/svg">
<path id="Union" d="M120 78C120 82.4183 123.582 86 128 86H227C231.418 86 235 89.5817 235 94V117.154C235 119.069 233.448 120.621 231.533 120.621C229.619 120.621 228.066 122.173 228.066 124.088V142.039C228.066 143.954 229.619 145.506 231.533 145.506C233.448 145.506 235 147.058 235 148.973V178.621C235 183.039 231.418 186.621 227 186.621H208.099C205.509 186.621 203.41 188.72 203.41 191.31C203.41 193.899 205.509 195.998 208.099 195.998H234.999C235 195.998 235 195.998 235 195.999C235 196 235 196 234.999 196H15.5244C13.3336 196 11.5576 194.224 11.5576 192.033C11.5576 189.842 9.78162 188.066 7.59082 188.066H5.77881C2.58726 188.066 0 185.479 0 182.288V152.605C0 150.477 1.72506 148.752 3.85303 148.752H4.64062C6.33361 148.752 7.70605 147.38 7.70605 145.687C7.70605 143.994 6.33361 142.621 4.64062 142.621H3.85303C1.72506 142.621 0 140.896 0 138.768V100.854C0 96.4352 3.58172 92.8535 8 92.8535H35.0977C36.9902 92.8535 38.5244 91.3193 38.5244 89.4268C38.5244 87.5342 40.0586 86 41.9512 86H106C110.418 86 114 82.4183 114 78V48C114 43.5817 110.418 40 106 40H59.0195C57.3627 40 56.0195 38.6569 56.0195 37C56.0195 35.3431 54.6764 34 53.0195 34H52.1768C50.0545 34 48.334 32.2795 48.334 30.1572V11.4829C48.334 9.00707 50.3411 7 52.8169 7H53.7998C55.7328 7 57.2998 5.433 57.2998 3.5C57.2998 1.567 58.8668 0 60.7998 0H98.8486C99.9532 0 100.849 0.895431 100.849 2C100.849 3.10457 101.744 4 102.849 4H106.534C107.639 4 108.534 3.10457 108.534 2C108.534 0.895431 109.43 0 110.534 0H175.981C177.638 0 178.981 1.34315 178.981 3C178.981 4.65685 180.325 6 181.981 6H183.667C185.324 6 186.667 4.65685 186.667 3V0.000488162C186.667 0.000218492 186.667 0 186.667 0C186.668 0 186.668 0.000218611 186.668 0.000488281V32.7974C186.668 34.5661 185.234 36 183.465 36H182.263C181.158 36 180.263 36.8954 180.263 38C180.263 39.1046 179.367 40 178.263 40H149.741C148.913 40 148.241 39.3284 148.241 38.5C148.241 37.6716 147.57 37 146.741 37H134.371C133.543 37 132.871 37.6716 132.871 38.5C132.871 39.3284 132.2 40 131.371 40H126.436C122.881 40 120 42.8813 120 46.4355V78ZM208.803 92.6724C208.803 95.1622 210.821 97.1807 213.311 97.1807H223.557C226.047 97.1807 228.065 95.1622 228.065 92.6724C228.065 90.1825 226.047 88.1641 223.557 88.1641H213.311C210.821 88.1641 208.803 90.1825 208.803 92.6724Z" fill="var(--fill-0, #6FC1EA)"/>
</svg>
