<svg preserveAspectRatio="none" width="100%" height="100%" overflow="visible" style="display: block;" viewBox="0 0 235 196" fill="none" xmlns="http://www.w3.org/2000/svg">
<path id="Union" d="M120.001 78C120.001 82.4183 123.583 86 128.001 86H227C231.418 86 235 89.5817 235 94V127.975C235 129.889 233.448 131.441 231.533 131.441C229.619 131.441 228.066 132.994 228.066 134.908V145.286C228.066 147.201 229.619 148.753 231.533 148.753C233.448 148.753 235 150.305 235 152.22V178.621C235 183.039 231.418 186.621 227 186.621H200.394C197.804 186.621 195.705 188.72 195.705 191.31C195.705 193.899 197.804 195.998 200.394 195.998H234.999C235 195.998 235 195.998 235 195.999C235 196 235 196 234.999 196H1.84277C0.825037 196 0 195.175 0 194.157C0 193.139 0.825038 192.314 1.84277 192.314H6.65527C9.54344 192.314 11.8848 189.973 11.8848 187.085C11.8848 184.197 9.54344 181.855 6.65527 181.855H5.94238C2.6605 181.855 0 179.195 0 175.913V118.156C0 114.539 2.93223 111.606 6.54932 111.606C10.1664 111.606 13.0986 108.674 13.0986 105.057V94C13.0986 89.5817 16.6804 86 21.0986 86H106.001C110.419 86 114.001 82.4183 114.001 78V48C114.001 43.5817 110.419 40 106.001 40H33.666C29.2477 40 25.666 36.4183 25.666 32V15.1299C25.666 12.2967 27.9627 10 30.7959 10H30.9258C33.6872 10 35.9258 7.76142 35.9258 5C35.9258 2.23858 38.1644 0 40.9258 0H139.938C141.043 0 141.938 0.895431 141.938 2C141.938 3.10457 142.834 4 143.938 4H163.877C164.982 4 165.877 3.10457 165.877 2C165.877 0.895431 166.772 0 167.877 0H203.333C207.199 0 210.333 3.13401 210.333 7V9.7251C210.333 12.0861 208.419 14 206.058 14C203.697 14 201.783 15.9139 201.783 18.2749V21.7251C201.783 24.0861 203.697 26 206.058 26C208.419 26 210.333 27.9139 210.333 30.2749V33C210.333 36.866 207.199 40 203.333 40H182.766C181.937 40 181.266 39.3284 181.266 38.5C181.266 37.6716 180.594 37 179.766 37H158.827C157.999 37 157.327 37.6716 157.327 38.5C157.327 39.3284 156.656 40 155.827 40H128.001C123.583 40 120.001 43.5817 120.001 48V78ZM220.361 90.6885C220.361 92.0827 221.492 93.2129 222.886 93.2129H228.624C230.018 93.2129 231.148 92.0827 231.148 90.6885C231.148 89.2943 230.018 88.1641 228.624 88.1641H222.886C221.492 88.1641 220.361 89.2943 220.361 90.6885ZM30.7959 35C30.7959 36.6569 32.139 38 33.7959 38H38.0557C39.7125 38 41.0557 36.6569 41.0557 35C41.0557 33.3431 39.7125 32 38.0557 32H33.7959C32.139 32 30.7959 33.3431 30.7959 35Z" fill="var(--fill-0, #C498DF)"/>
</svg>
