<svg preserveAspectRatio="none" width="100%" height="100%" overflow="visible" style="display: block;" viewBox="0 0 235 195" fill="none" xmlns="http://www.w3.org/2000/svg">
<path id="Union" d="M219.59 89.147C219.59 91.4373 221.447 93.2939 223.737 93.2939H227.295C231.55 93.2939 235 96.7436 235 100.999V148.346C235 152.601 231.55 156.051 227.295 156.051H225.721C222.335 156.051 219.59 158.796 219.59 162.182C219.59 165.568 222.335 168.313 225.721 168.313H227.295C231.55 168.313 235 171.763 235 176.019V180.867C235 185.285 231.418 188.867 227 188.867H190.296C188.602 188.867 187.229 190.24 187.229 191.934C187.229 193.627 185.857 195 184.163 195H53.1484C51.4549 195 50.082 193.627 50.082 191.934C50.082 190.24 48.7092 188.867 47.0156 188.867H8C3.58172 188.867 0 185.285 0 180.867V126.46C0 123.482 2.41456 121.067 5.39307 121.067C8.37157 121.067 10.7861 118.653 10.7861 115.674V114.198C10.7861 111.219 8.37157 108.805 5.39307 108.805C2.41456 108.805 0 106.39 0 103.412V99.4932C0 95.0749 3.58172 91.4932 8 91.4932H19.8687C21.6617 91.4932 23.1152 90.0396 23.1152 88.2466C23.1152 86.4535 24.5688 85 26.3618 85H106C110.418 85 114 81.4183 114 77V48C114 43.5817 110.418 40 106 40H11C6.58172 40 3 36.4183 3 32V16.333C3 12.8354 5.83538 10 9.33301 10H10.666C13.4274 10 15.666 7.76142 15.666 5C15.666 2.23858 17.9046 0 20.666 0H144.555C145.659 0 146.555 0.895431 146.555 2C146.555 3.10457 147.45 4 148.555 4H174.11C175.215 4 176.11 3.10457 176.11 2C176.11 0.895431 177.006 0 178.11 0H224C227.866 0 231 3.13401 231 7V8.72217C231 11.637 228.637 14 225.722 14C222.807 14 220.444 16.363 220.444 19.2778V20.7222C220.444 23.637 222.807 26 225.722 26C228.637 26 231 28.363 231 31.2778V33C231 36.866 227.866 40 224 40H196.611C195.783 40 195.111 39.3284 195.111 38.5C195.111 37.6716 194.44 37 193.611 37H167.056C166.227 37 165.556 37.6716 165.556 38.5C165.556 39.3284 164.884 40 164.056 40H128C123.582 40 120 43.5817 120 48V77C120 81.4183 123.582 85 128 85H215.443C217.733 85 219.59 86.8567 219.59 89.147ZM9.33398 35C9.33398 36.6569 10.6771 38 12.334 38H19.001C20.6578 38 22.001 36.6569 22.001 35C22.001 33.3431 20.6578 32 19.001 32H12.334C10.6771 32 9.33398 33.3431 9.33398 35Z" fill="var(--fill-0, #BBF7A1)"/>
</svg>
