<svg preserveAspectRatio="none" width="100%" height="100%" overflow="visible" style="display: block;" viewBox="0 0 305 138" fill="none" xmlns="http://www.w3.org/2000/svg">
<path id="Subtract" d="M305 38.9355C305 41.4208 302.985 43.4355 300.5 43.4355C298.015 43.4355 296 45.4503 296 47.9355V70.1553C296 72.6406 298.015 74.6553 300.5 74.6553C302.985 74.6553 305 76.67 305 79.1553V114.236C305 120.864 299.627 126.236 293 126.236H269.882C266.633 126.236 264 128.87 264 132.118C264 135.367 261.367 138 258.118 138H19.9766C17.2281 138 15 135.772 15 133.023C15 130.275 12.7719 128.047 10.0234 128.047H7.5C3.35786 128.047 0 124.689 0 120.547V83.7266C0 80.9651 2.23858 78.7266 5 78.7266H6.1543C8.27822 78.7266 10 77.0048 10 74.8809C10 72.7569 8.27822 71.0352 6.1543 71.0352H5C2.23858 71.0352 0 68.7966 0 66.0352V20.5957C0 13.9683 5.37258 8.5957 12 8.5957H45.7021C48.0758 8.5957 50 6.67149 50 4.29785C50 1.92421 51.9242 0 54.2979 0H293C299.627 0 305 5.37258 305 12V38.9355ZM271 8.37061C271 11.4942 273.532 14.0264 276.656 14.0264H290.344C293.468 14.0264 296 11.4942 296 8.37061C296 5.24701 293.468 2.71484 290.344 2.71484H276.656C273.532 2.71484 271 5.24701 271 8.37061Z" fill="var(--fill-0, #C47C39)"/>
</svg>
