<svg preserveAspectRatio="none" width="100%" height="100%" overflow="visible" style="display: block;" viewBox="0 0 305 160" fill="none" xmlns="http://www.w3.org/2000/svg">
<path id="Subtract" d="M305 61.5977C305 64.0829 302.985 66.0977 300.5 66.0977C298.015 66.0977 296 68.1124 296 70.5977V86.7783C296 89.2636 298.015 91.2783 300.5 91.2783C302.985 91.2783 305 93.293 305 95.7783V134.361C305 140.989 299.627 146.361 293 146.361H260.819C257.053 146.361 254 149.414 254 153.181C254 156.947 250.947 160 247.181 160H9.70508C4.34511 160 0 155.655 0 150.295V149.09C0 144.395 3.80558 140.59 8.5 140.59H9.39355C13.5945 140.59 17 137.184 17 132.983C17 128.782 13.5945 125.377 9.39355 125.377H8.5C3.80558 125.377 0 121.571 0 116.877V45.7471C0 41.0526 3.80558 37.2471 8.5 37.2471C13.1944 37.2471 17 33.4415 17 28.7471V12C17 5.37258 22.3726 0 29 0H293C299.627 0 305 5.37258 305 12V61.5977ZM286 6.8208C286 8.84899 287.644 10.4932 289.672 10.4932H296.328C298.356 10.4932 300 8.84899 300 6.8208C300 4.79261 298.356 3.14844 296.328 3.14844H289.672C287.644 3.14844 286 4.79261 286 6.8208Z" fill="var(--fill-0, #9247C1)"/>
</svg>
