<svg preserveAspectRatio="none" width="100%" height="100%" overflow="visible" style="display: block;" viewBox="0 0 305 136" fill="none" xmlns="http://www.w3.org/2000/svg">
<path id="Subtract" d="M305 2.00684C305 3.11518 304.102 4.01367 302.993 4.01367H274.013C271.797 4.01367 270 5.81044 270 8.02686C270 10.2433 271.797 12.04 274.013 12.04H293C299.627 12.04 305 17.4126 305 24.04V114.637C305 121.264 299.627 126.637 293 126.637H268.013C265.797 126.637 264 128.433 264 130.65C264 132.866 265.797 134.663 268.013 134.663H304.332C304.701 134.663 305 134.962 305 135.332C305 135.701 304.701 136 304.332 136H12C5.37258 136 0 130.627 0 124V102.031C0 97.8891 3.42984 94.5312 7.57197 94.5312C11.6354 94.5312 15 91.2372 15 87.1738C15 83.1104 11.6354 79.8164 7.57197 79.8164C3.42984 79.8164 0 76.4585 0 72.3164V19.5801C0 12.9527 5.37258 7.58008 12 7.58008H49.21C51.3031 7.58008 53 5.88322 53 3.79004C53 1.69686 54.6969 0 56.79 0H302.993C304.102 0 305 0.898491 305 2.00684ZM4 132.655C4 133.763 4.89827 134.661 6.00635 134.661H10.9937C12.1017 134.661 13 133.763 13 132.655C13 131.547 12.1017 130.648 10.9937 130.648H6.00635C4.89827 130.648 4 131.547 4 132.655Z" fill="var(--fill-0, #BC6565)"/>
</svg>
