<svg preserveAspectRatio="none" width="100%" height="100%" overflow="visible" style="display: block;" viewBox="0 0 305 138" fill="none" xmlns="http://www.w3.org/2000/svg">
<path id="Subtract" d="M285 5.20361C285 8.07749 287.33 10.4072 290.204 10.4072H295C300.523 10.4072 305 14.8844 305 20.4072V79.1348C305 84.6576 300.523 89.1348 295 89.1348H292.692C288.444 89.1348 285 92.5785 285 96.8267C285 101.075 288.444 104.519 292.692 104.519H295C300.523 104.519 305 108.996 305 114.519V118.309C305 124.936 299.627 130.309 293 130.309H246.846C244.722 130.309 243 132.03 243 134.154C243 136.278 241.278 138 239.154 138H68.8457C66.7218 138 65 136.278 65 134.154C65 132.03 63.2782 130.309 61.1543 130.309H12C5.37258 130.309 0 124.936 0 118.309V52.2451C0 48.3791 3.13401 45.2451 7 45.2451C10.866 45.2451 14 42.1111 14 38.2451V36.8613C14 32.9953 10.866 29.8613 7 29.8613C3.13401 29.8613 0 26.7273 0 22.8613V19.0024C0 13.0052 4.86169 8.14355 10.8589 8.14355H25.9282C28.177 8.14355 30 6.32056 30 4.07178C30 1.823 31.823 0 34.0718 0H279.796C282.67 0 285 2.32974 285 5.20361Z" fill="var(--fill-0, #368BBF)"/>
</svg>
