<svg preserveAspectRatio="none" width="100%" height="100%" overflow="visible" style="display: block;" viewBox="0 0 327 40" fill="none" xmlns="http://www.w3.org/2000/svg">
<path id="Subtract" d="M266.444 3.5C266.444 5.433 268.011 7 269.944 7H321C324.314 7 327 9.68629 327 13V26C327 29.3137 324.314 32 321 32H306.777C304.568 32 302.777 33.7909 302.777 36C302.777 38.2091 300.986 40 298.777 40H192.75C191.645 40 190.75 39.1046 190.75 38C190.75 36.8954 189.855 36 188.75 36H135.223C134.118 36 133.223 36.8954 133.223 38C133.223 39.1046 132.327 40 131.223 40H26.2227C25.1181 40 24.2227 39.1046 24.2227 38C24.2227 36.8954 23.3272 36 22.2227 36H6C2.68629 36 0 33.3137 0 30V23C0 19.6863 2.68629 17 6 17H9.13867C12.4524 17 15.1387 14.3137 15.1387 11V6C15.1387 2.68629 17.825 0 21.1387 0H262.944C264.877 0 266.444 1.567 266.444 3.5Z" fill="var(--fill-0, #830081)"/>
</svg>
