<svg preserveAspectRatio="none" width="100%" height="100%" overflow="visible" style="display: block;" viewBox="0 0 288 40" fill="none" xmlns="http://www.w3.org/2000/svg">
<path id="Subtract" d="M264 4.5C264 6.98528 266.015 9 268.5 9H282C285.314 9 288 11.6863 288 15V34C288 37.3137 285.314 40 282 40H87.834C86.4533 40 85.334 38.8807 85.334 37.5C85.334 36.1193 84.2147 35 82.834 35H63.834C62.4533 35 61.334 36.1193 61.334 37.5C61.334 38.8807 60.2147 40 58.834 40H4.5C2.01472 40 0 37.9853 0 35.5C0 33.0147 2.01472 31 4.5 31H10C13.3137 31 16 28.3137 16 25V19C16 15.6863 13.3137 13 10 13H6C2.68629 13 0 10.3137 0 7V6C0 2.68629 2.68629 0 6 0H17.667C18.2193 0 18.667 0.447715 18.667 1C18.667 1.55228 19.1147 2 19.667 2H60.333C60.8853 2 61.333 1.55228 61.333 1C61.333 0.447715 61.7807 0 62.333 0H259.5C261.985 0 264 2.01472 264 4.5ZM229.334 34.5C229.334 35.8807 230.453 37 231.834 37H269.501C270.882 37 272.001 35.8807 272.001 34.5C272.001 33.1193 270.882 32 269.501 32H231.834C230.453 32 229.334 33.1193 229.334 34.5Z" fill="var(--fill-0, #B83400)"/>
</svg>
