<svg preserveAspectRatio="none" width="100%" height="100%" overflow="visible" style="display: block;" viewBox="0 0 267 40" fill="none" xmlns="http://www.w3.org/2000/svg">
<path id="Subtract" d="M267 28.2915C267 30.3396 265.34 32 263.292 32H262.083C260.702 32 259.583 33.1193 259.583 34.5C259.583 35.8807 260.702 37 262.083 37H265.5C266.328 37 267 37.6716 267 38.5C267 39.3284 266.328 40 265.5 40H81.6113C80.2306 40 79.1113 38.8807 79.1113 37.5C79.1113 36.1193 77.992 35 76.6113 35H59.3613C57.9806 35 56.8613 36.1193 56.8613 37.5C56.8613 38.8807 55.742 40 54.3613 40H6C2.68629 40 0 37.3137 0 34V17C0 13.6863 2.68629 11 6 11H16.75C19.7876 11 22.25 8.53757 22.25 5.5C22.25 2.46243 24.7124 0 27.75 0H185.389C186.769 0 187.889 1.11929 187.889 2.5C187.889 3.88071 189.008 5 190.389 5H207.639C209.019 5 210.139 3.88071 210.139 2.5C210.139 1.11929 211.258 0 212.639 0H261C264.314 0 267 2.68629 267 6V28.2915ZM9.88867 34.5C9.88867 35.8807 11.008 37 12.3887 37H19.75C21.1307 37 22.25 35.8807 22.25 34.5C22.25 33.1193 21.1307 32 19.75 32H12.3887C11.008 32 9.88867 33.1193 9.88867 34.5ZM234.861 5.5C234.861 6.88071 235.981 8 237.361 8H244.723C246.103 8 247.223 6.88071 247.223 5.5C247.223 4.11929 246.103 3 244.723 3H237.361C235.981 3 234.861 4.11929 234.861 5.5Z" fill="var(--fill-0, #006EA9)"/>
</svg>
