<svg preserveAspectRatio="none" width="100%" height="100%" overflow="visible" style="display: block;" viewBox="0 0 383 40" fill="none" xmlns="http://www.w3.org/2000/svg">
<path id="Subtract" d="M365.269 3.5C365.269 5.433 366.836 7 368.769 7H377C380.314 7 383 9.68629 383 13V29C383 32.3137 380.314 35 377 35H371.314C369.934 35 368.814 36.1193 368.814 37.5C368.814 38.8807 367.695 40 366.314 40H16.1855C15.081 40 14.1855 39.1046 14.1855 38C14.1855 36.8954 13.2901 36 12.1855 36H6C2.68629 36 0 33.3137 0 30V15C0 11.6863 2.68629 9 6 9H27.417C29.9023 9 31.917 6.98528 31.917 4.5C31.917 2.01472 33.9317 0 36.417 0H361.769C363.702 0 365.269 1.567 365.269 3.5ZM14.1855 30C14.1855 31.6569 15.5287 33 17.1855 33H32.4629C34.1197 33 35.4629 31.6569 35.4629 30C35.4629 28.3431 34.1197 27 32.4629 27H17.1855C15.5287 27 14.1855 28.3431 14.1855 30Z" fill="var(--fill-0, #66B151)"/>
</svg>
