<svg preserveAspectRatio="none" width="100%" height="100%" overflow="visible" style="display: block;" viewBox="0 0 296.087 454.504" fill="none" xmlns="http://www.w3.org/2000/svg">
<g id="Vector 24" filter="url(#filter0_f_0_118)">
<path d="M117.537 147.018C118.311 151.018 120.049 154.877 122.084 158.907C125.1 165.066 129.211 167.59 135.778 171.41C143.383 175.696 152.385 180.163 162.208 187.372C162.409 187.521 162.607 187.669 162.803 187.816C168.042 191.739 172.97 195.901 176.351 200.244C181.829 207.34 185.162 213.011 188.353 221.815C190.892 229.27 190.216 236.998 189.41 245.84C189.236 247.615 189.022 249.421 188.788 251.298C187.715 259.713 186.091 267.815 184.479 275.551C183.988 277.862 183.537 280.097 182.747 282.765C182.33 284.104 181.846 285.606 180.805 287.417C179.803 289.228 177.947 291.104 176.445 292.081C169.266 296.584 162.988 295.94 157.775 295.396C147.341 293.74 140.054 290.59 134.111 288.36C132.977 287.911 131.918 287.473 130.93 287.056C120.553 282.348 117.595 276.53 114.45 267.766C112.994 263.34 112.424 258.727 111.351 252.489C111.298 252.173 111.246 251.86 111.196 251.548C110.199 245.176 109.933 239.614 110.142 234.245C110.263 229.649 111.348 224.626 112.871 220.669C115.071 214.635 117.702 208.736 120.22 202.237C120.653 201.089 121.137 199.694 121.431 198.427C121.491 198.151 121.538 197.891 121.644 197.392C121.673 197.259 121.705 197.11 121.77 196.877C121.804 196.758 121.847 196.614 121.922 196.414C122.009 196.201 122.096 195.932 122.438 195.43C122.644 195.15 122.865 194.837 123.464 194.41C124.01 194.011 124.997 193.66 125.863 193.711C127.603 193.869 128.021 194.48 128.356 194.704C128.94 195.239 129.031 195.453 129.173 195.65C129.614 196.356 129.705 196.645 129.881 197.03C130.034 197.387 130.169 197.723 130.303 198.061C132.084 202.699 134.065 207.978 136.858 213.434C139.486 218.609 143.012 223.856 146.492 229.512C152.001 238.319 151.708 248.777 151.706 256.939C151.551 265.141 151.109 272.096 151.259 276.949C151.319 279.29 151.325 281.672 151.377 283.96C151.326 289.756 152.391 292.085 156.151 296.671C162.681 304.758 169.159 312.672 174.092 318.725C174.724 319.498 175.333 320.243 175.916 320.955C177.842 323.321 179.441 325.477 180.435 327.458C180.803 328.162 181.161 328.787 181.524 329.366C182.085 330.258 182.217 330.808 182.01 330.988C182.01 330.988 182.01 330.988 182.01 330.988C181.758 331.206 180.986 330.873 180.072 329.779C179.717 329.349 179.364 328.885 179.017 328.401C177.354 325.998 174.812 323.53 171.901 320.774C168.404 317.503 164.29 313.903 159.771 310.039C155.998 306.81 153.09 304.095 150.637 301.48C148.535 299.186 146.511 296.93 145.173 293.608C143.857 290.232 143.962 286.984 144.057 283.871C144.292 277.624 145.203 270.22 145.319 258.95C145.32 258.218 145.315 257.49 145.3 256.787C145.139 247.078 144.007 239.205 139.803 233.677C136.356 228.85 132.388 223.829 128.878 217.839C126.019 212.984 123.55 207.541 121.258 202.143C121.142 201.878 121.028 201.621 120.929 201.407C120.88 201.301 120.834 201.204 120.805 201.145C120.781 201.09 120.751 201.045 120.843 201.188C120.897 201.265 120.957 201.384 121.281 201.759C121.375 201.865 121.492 201.99 121.647 202.134C121.84 202.313 122.066 202.51 122.453 202.763C122.926 203.051 123.406 203.368 124.579 203.618C125.591 203.861 127.347 203.681 128.417 203.093C130.681 201.788 130.75 200.923 131.08 200.458C131.295 200.024 131.363 199.793 131.416 199.631C131.506 199.33 131.511 199.256 131.519 199.219C131.526 199.137 131.46 199.545 131.403 199.9C130.369 205.303 128.692 209.221 126.968 213.861C125.541 217.565 124.327 220.917 123.302 224.074C121.963 228.1 121.613 231.171 121.674 234.778C121.767 240.053 122.439 245.095 123.441 250.117C124.311 254.404 125.316 259.399 126.785 262.425C129.041 267.072 132.552 271.055 140.187 275.043C143.343 276.672 147.003 278.336 150.985 279.862C153.96 280.996 156.81 281.846 159.303 282.298C163.551 283.118 167.373 282.524 168.917 281.403C169.487 281.922 170.687 276.739 171.175 272.947C172.662 262.68 173.367 253.867 173.505 244.127C173.502 238.541 173.426 231.869 171.499 228.502C170.108 225.686 167.495 221.792 164.22 217.954C163.23 216.79 162.189 215.639 161.097 214.501C158.231 211.42 154.312 208.653 149.649 205.334C141.556 199.617 132.813 193.987 123.907 187.084C117.698 182.526 109.543 173.84 106.779 165.553C104.498 159.83 101.738 153.33 100.8 145.691C100.277 140.907 99.8934 136.169 100.027 131.187C100.41 126.234 100.046 120.789 105.281 114.056C109.806 108.647 117.005 104.086 123.387 102.885C124.935 102.545 126.473 102.193 127.973 101.863C134.259 100.744 141.799 98.1939 152.353 102.068C155.298 103.244 159.43 105.451 162.411 108.635C165.405 111.76 167.279 115.011 168.883 118.082C173.417 126.95 177.735 136.244 181.616 146.521C184.865 155.258 187.623 164.501 189.25 174.448C190.279 180.286 190.508 187.325 189.739 193.365C189.52 195.3 189.255 197.188 188.965 199.074C187.182 210.194 184.966 221.385 181.898 233.213C179.733 241.78 176.085 251.204 171.634 259.189C167.01 267.746 161.964 275.899 157.411 283.832C154.889 288.276 152.603 292.407 151.286 296.303C148.998 302.916 146.589 309.438 146.395 313.678C146.285 316.284 146.503 319.183 146.936 322.012C147.322 324.529 147.913 327.115 148.717 329.694C150.047 333.969 151.477 337.878 153.208 340.008C153.174 340.061 153.021 339.595 151.373 338.951C150.577 338.661 149.574 338.602 149.079 338.664C148.561 338.72 148.455 338.785 148.533 338.768C148.966 338.846 150.82 337.826 152.645 336.555C159.227 332.013 165.732 327.51 172.753 322.915C176.116 320.902 178.15 318.713 179.843 315.476C182.558 310.138 184.391 303.963 184.119 299.21C184.1 298.948 184.08 298.717 184.067 298.58C184.06 298.449 184.034 298.398 184.148 298.682C184.239 298.921 184.692 299.815 185.605 300.399C186.501 300.965 187.072 300.957 187.205 300.97C184.15 300.413 178.815 301.81 172.917 297.792C172.183 297.253 171.326 296.31 170.851 295.367C170.36 294.422 170.17 293.607 170.052 292.948C169.839 291.636 169.868 290.738 169.884 289.866C169.939 288.163 170.087 286.704 170.227 285.257C171.116 276.709 172.079 269.2 172.611 263.014C172.696 262.016 172.777 261.057 172.85 260.144C173.128 256.705 173.308 253.263 172.721 251.852C171.485 249.376 166.836 246.418 163.89 244.037C160.678 241.558 157.793 239.15 155.071 236.545C151.984 233.611 149.236 229.635 148.591 224.588C147.978 220.34 149.218 215.995 150.564 211.668C151.302 209.316 152.127 206.852 152.988 204.212C154.056 200.919 155.257 197.392 156.285 193.748C157.418 189.64 158.479 185.37 158.315 181.211C158.082 174.767 156.589 168.08 151.752 164.183C148.294 161.361 144.555 158.961 140.634 157.268C136.23 155.425 134.282 155.025 134.915 154.547C135.509 154.153 138.787 153.935 143.7 155.578C147.631 156.903 151.098 158.827 154.126 160.902C162.238 166.755 162.934 175.628 164.189 180.855C164.309 181.464 164.417 182.056 164.517 182.628C165.385 187.98 164.955 192.261 164.481 196.074C163.586 202.373 161.833 207.666 159.051 214.545C158.131 216.87 157.079 219.378 156.585 221.51C156.415 222.256 156.345 222.927 156.364 223.635C156.431 226.657 158.204 229.043 160.435 230.788C167.256 236.461 172.509 236.264 180.279 244.148C180.959 244.983 181.652 245.975 182.234 247.255C184.824 255.299 182.906 257.187 182.577 263.437C182.089 268.327 181.31 275.163 180.634 285.922C180.564 287.206 180.497 288.573 180.511 289.742C180.515 290.302 180.567 290.867 180.595 290.914C180.6 290.932 180.601 290.754 180.384 290.302C180.185 289.852 179.638 289.244 179.372 289.063C179.364 289.06 180.184 289.395 181.706 289.439C183.261 289.531 185.078 289.312 188.176 289.45C189.002 289.527 190.357 289.661 192.006 290.705C193.684 291.764 194.658 293.475 195.018 294.422C195.736 296.384 195.695 297.094 195.838 297.888C196.112 299.929 196.137 301.905 196.024 303.864C195.592 310.327 193.889 315.86 191.723 320.971C189.461 326.496 184.867 331.629 180.588 334.456C173.922 339.438 167.489 344.479 161.802 348.909C159.494 350.599 157.152 352.69 152.643 354.028C152.161 354.159 151.459 354.365 150.285 354.468C149.14 354.58 147.418 354.441 145.992 353.91C143.078 352.777 142.068 351.439 141.272 350.647C136.197 344.884 134.602 339.513 132.901 335.296C130.046 327.564 128.712 320.469 128.646 313.43C128.692 308.514 129.617 304.812 130.444 301.534C131.356 298.039 132.638 294.326 133.994 290.432C135.855 284.956 138.818 279.778 141.77 274.838C146.442 267.085 151.752 259.108 156.528 250.852C160.721 243.725 163.638 236.779 165.773 228.803C167.342 223.077 168.608 217.211 169.61 211.619C170.397 207.187 171.269 202.092 171.974 196.698C172.837 190.096 173.182 184.385 171.846 177.439C170.431 169.448 167.949 160.965 164.867 152.761C161.384 143.565 157.141 134.304 152.967 126.118C151.768 123.777 150.508 121.885 149.469 120.876C148.448 119.877 147.483 119.329 145.341 118.449C142.736 117.303 136.366 118.297 131.831 119.531C130.304 119.923 128.808 120.321 127.337 120.694C123.538 121.816 121.689 123.613 119.255 126.013C119.609 125.303 118.956 125.918 118.604 126.913C118.204 127.921 117.856 129.28 117.59 130.822C117.063 133.931 116.797 137.824 117.103 143.387C117.139 144.456 117.277 145.669 117.537 147.018Z" fill="url(#paint0_linear_0_118)"/>
</g>
<defs>
<filter id="filter0_f_0_118" x="-1.90735e-06" y="0" width="296.087" height="454.504" filterUnits="userSpaceOnUse" color-interpolation-filters="sRGB">
<feFlood flood-opacity="0" result="BackgroundImageFix"/>
<feBlend mode="normal" in="SourceGraphic" in2="BackgroundImageFix" result="shape"/>
<feGaussianBlur stdDeviation="50" result="effect1_foregroundBlur_0_118"/>
</filter>
<linearGradient id="paint0_linear_0_118" x1="149.239" y1="108.586" x2="149.239" y2="346.143" gradientUnits="userSpaceOnUse">
<stop stop-color="#FFF0C1"/>
<stop offset="1" stop-color="#799992"/>
</linearGradient>
</defs>
</svg>
