<svg preserveAspectRatio="none" width="100%" height="100%" overflow="visible" style="display: block;" viewBox="0 0 350.022 368.719" fill="none" xmlns="http://www.w3.org/2000/svg">
<g id="Vector 23" filter="url(#filter0_f_0_265)">
<path d="M222.993 225.069C218.309 230.769 214.713 236.543 211.201 242.525C207.161 248.988 204.631 255.413 196.731 263.12C192.176 268.013 181.305 269.717 176.07 268.161C172.917 267.551 170.529 266.51 168.371 265.397C158.329 259.684 154.491 254.832 150.294 250.58C143.704 243.685 138.835 235.114 136.367 222.551C135.795 219.888 134.976 217.029 133.687 214.041C132.314 210.856 130.672 207.881 128.735 205.092C126.132 201.306 124.401 197.545 122.898 193.999C122.152 192.227 121.479 190.502 120.851 188.939C120.54 188.169 120.231 187.421 119.979 186.87C119.861 186.607 119.739 186.373 119.737 186.354C119.742 186.349 119.765 186.393 119.953 186.612C120.176 186.808 120.376 187.284 121.954 188.081C122.229 188.05 119.958 187.547 117.951 187.175C115.84 186.755 113.462 186.168 111.166 185.214C103.484 181.876 101.657 175.129 100.494 171.369C98.8193 161.832 101.877 158.149 102.665 154.411C103.641 151.341 104.735 149.149 105.844 147.309C111.15 139.217 116.513 138.579 127.074 129.423C127.382 129.159 127.682 128.902 127.985 128.643C131.399 125.73 134.64 123.27 137.773 121.104C139.331 120.027 140.88 119.013 142.366 118.071C143.107 117.6 143.835 117.146 144.509 116.718C144.839 116.509 145.16 116.302 145.407 116.136C145.527 116.057 145.633 115.982 145.667 115.961C145.683 115.952 145.683 115.955 145.632 116.006C145.58 116.063 145.475 116.149 145.222 116.478C144.677 117.222 144.621 117.857 144.624 118.018C144.631 118.204 144.667 118.095 144.652 117.897C144.629 117.481 144.46 116.727 144.224 115.943C144.104 115.405 143.854 114.829 143.268 114.093C142.975 113.727 142.607 113.334 142.128 112.873C141.632 112.378 141.114 111.986 140.095 110.873C139.257 109.918 138.464 108.64 138.356 106.728C138.193 104.796 139.429 102.636 140.612 101.797C143.025 99.9896 145.302 99.9555 147.044 100.015C150.202 100.211 153.332 101.24 156.734 102.701C166.547 107.665 167.896 118.004 171.979 126.858C178.517 143.698 185.165 161.767 189.441 170.661C190.291 172.436 191.095 174.264 191.855 176.125C195.077 184.074 197.59 192.644 198.936 200.822C199.637 205.181 200.15 209.071 201.298 212.397L200.964 211.879C202.268 213.636 203.728 215.071 205.226 216.129C207.812 217.959 210.312 218.898 212.343 219.571C212.351 219.573 212.374 219.578 212.382 219.58C212.627 219.672 212.855 219.771 213.062 219.865C213.506 220.069 213.746 220.224 213.928 220.342C214.107 220.463 214.245 220.563 214.277 220.696C214.277 220.696 214.277 220.697 214.277 220.697C214.323 220.854 214.155 221.099 213.718 221.192C213.283 221.286 212.737 221.191 212.185 221.063C212.131 221.051 212.077 221.039 212.023 221.028L212.065 221.037C208.194 220.502 202.822 218.749 198.266 214.305C198.193 214.22 198.019 213.96 197.977 213.856C196.303 210.812 195.014 207.233 193.704 203.676C193.522 203.184 193.346 202.704 193.176 202.236C189.205 191.86 187.608 186.742 185.005 178.598C183.34 173.55 181.165 167.354 177.254 158.167C172.678 147.46 168.545 138.702 164.365 130.041C162.559 126.336 160.778 122.589 158.872 119.02C156.968 115.413 154.851 112.349 153.245 111.94C151.699 111.34 150.085 110.813 148.665 110.52C147.966 110.373 147.306 110.299 146.933 110.292C146.751 110.284 146.651 110.296 146.712 110.26C146.766 110.224 147.021 110.121 147.347 109.821C148.031 109.33 149.036 107.596 148.87 106.148C148.753 104.724 148.201 104.05 147.776 103.603C147.643 103.522 148.113 103.972 148.589 104.389C150.56 106.071 153.255 108.812 154.402 112.18C154.82 113.375 155.23 114.604 155.496 116.203C155.658 117.727 156.198 120.138 154.043 123.238C153.588 123.823 153.316 124.055 153.081 124.276C152.863 124.474 152.677 124.628 152.514 124.759C152.188 125.022 151.928 125.216 151.667 125.408C151.164 125.777 150.72 126.089 150.29 126.393C149.421 127.005 148.633 127.561 147.854 128.126C146.304 129.246 144.86 130.347 143.468 131.463C140.689 133.692 138.129 135.963 135.52 138.383C130.288 143.409 122.879 148.805 119.496 154.458C118.205 156.837 116.857 159.349 115.709 161.891C114.527 164.28 113.815 167.452 113.739 167.608C113.816 168.028 113.897 168.434 113.984 168.823C114.622 171.607 115.338 172.57 115.968 172.983C118.796 174.462 121.442 174.013 127.45 176.223C129.454 177.274 129.713 177.952 130.199 178.484C130.589 178.993 130.834 179.393 131.045 179.75C131.461 180.462 131.737 181.025 131.999 181.567C132.516 182.644 132.929 183.584 133.335 184.487C134.141 186.285 134.888 187.901 135.662 189.404C137.199 192.397 138.829 194.951 140.573 196.907C145.635 203.002 149.71 210.065 152.504 218.927C154.674 225.344 156.952 230.073 163.366 235.299C163.663 235.541 163.96 235.782 164.261 236.026C169.758 240.592 177.55 246.128 180.146 246.596C181.714 246.925 182.541 246.928 182.725 246.918C182.837 246.914 182.864 246.926 182.991 246.89C183.113 246.855 183.335 246.754 183.655 246.53C187.41 243.733 192.578 237.318 197.047 231.833C208.151 217.95 218.7 204.15 226.098 192.97C227.821 190.328 229.364 187.825 230.494 185.66C231.662 183.555 232.104 181.588 231.956 182.095C231.947 182.189 231.978 182.352 231.947 182.262C230.026 175.991 226.358 170.359 220.249 166.427C215.322 163.207 209.036 160.858 202.015 159.209C194.036 157.316 185.479 156.316 175.414 154.282C173.901 153.921 172.506 153.665 170.094 152.661C169.466 152.38 168.747 152.052 167.733 151.361C166.776 150.658 165.187 149.542 163.975 146.827C162.725 144.028 163.237 140.939 163.719 139.636C164.215 138.202 164.636 137.566 164.925 137.058C167.598 132.838 170.427 127.478 177.176 123.145C177.544 122.922 177.925 122.705 178.319 122.498C184.886 118.789 194.511 118.368 201.57 121.844C208.646 125.203 216.998 128.757 223.921 137.212C227.852 142.977 234.652 148.299 234.452 161.64C233.996 167.022 230.869 172.582 226.281 175.73C217.46 181.171 211.485 180.199 205.624 180.831C194.248 181.342 183.365 181.057 173.448 181.569C171.327 181.688 169.272 181.862 167.389 182.126C163.98 182.617 161.379 183.333 159.056 184.904C156.461 186.618 153.949 189.519 152.847 192.149C152.025 194.228 151.913 195.423 152.892 198.142C154.067 201.23 156.338 204.559 158.708 206.569C160.788 208.344 163.327 209.416 166.092 209.658C169.032 209.912 171.532 209.444 174.374 208.167C178.255 206.382 181.977 204.758 185.16 202.999C188.334 201.394 190.921 198.802 190.774 198.531C191.461 194.578 188.009 189.084 184.519 185.596C182.197 183.217 179.725 181.166 177.493 179.427C175.532 177.906 173.639 176.563 171.836 175.383C167.646 172.628 163.961 170.874 160.335 169.84C155.352 168.478 150.404 167.737 145.385 166.367C139.509 164.668 133.256 163.379 124.97 158.847C124.024 158.26 123.069 157.59 122.127 156.719C119.977 154.949 118.111 151.024 118.837 147.635C119.491 141.948 122.214 134.317 128.239 130.231C133.302 126.613 138.782 123.203 145.105 121.609C148.299 120.885 151.471 120.286 154.583 119.905C159.056 119.343 160.873 119.932 160.348 120.417C159.915 120.88 157.368 121.609 153.177 122.94C150.753 123.704 148.426 124.476 146.194 125.233C140.057 127.515 135.012 131.282 131.526 134.484C130.409 135.555 129.61 136.682 129.129 137.774C127.361 141.959 127.748 145.185 127.614 149.066C127.671 149.399 127.786 149.518 127.867 149.525C127.953 149.535 127.993 149.481 128.096 149.566C128.281 149.719 128.908 150.375 130.018 151.129C131.918 152.437 135.169 154.164 139.183 156.075C142.053 157.434 144.793 158.366 147.302 158.996C152.98 160.446 157.457 160.126 162.594 160.716C166.719 161.206 170.659 162.368 174.105 164.363C175.275 165.039 176.24 165.679 177.14 166.321C180.7 169.026 183.477 171.04 191.339 178.32C194.654 182.241 201.343 186.661 201.455 199.651C200.505 206.191 196.344 208.92 193.277 211.327C189.994 213.681 186.531 215.569 182.926 217.551C181.904 218.111 180.906 218.654 179.937 219.188C175.764 221.544 170.314 222.946 165.62 222.81C159.959 222.775 154.44 220.791 150.225 217.688C144.928 213.695 141.723 209.231 139.249 204.127C136.781 199.427 136.159 191.942 138.096 186.949C140.559 179.976 144.54 175.393 149.124 171.71C157.693 165.223 165.979 164.813 171.923 163.989C176.206 163.541 179.92 163.338 183.358 163.154C189.083 162.835 196.685 162.915 204.773 162.747C209.439 162.705 215.465 161.999 216.166 161.291C216.742 160.947 217.04 160.637 217.222 159.814C217.934 158.767 214.709 152.477 210.658 147.501C207.782 143.646 202.077 140.415 196.221 137.89C195.707 137.666 195.178 137.439 194.633 137.207C191.913 136.132 189.545 136.049 186.579 137.668C185.2 138.332 182.604 141.581 180.147 145.989C180.108 146.039 180.209 145.973 180.489 145.193C180.746 144.53 181.226 142.278 180.308 140.058C179.403 137.905 178.263 137.168 177.818 136.819C177.317 136.473 177.16 136.428 177.109 136.399C177.034 136.384 178.155 136.722 179.151 136.919C187.078 138.46 196.823 139.606 206.216 141.834C214.597 143.823 222.991 146.879 230.186 151.64C240.953 158.541 246.836 169.511 249.236 177.169C249.633 178.402 249.937 179.897 250.022 181.317C249.85 190.441 247.224 192.696 245.929 195.824C244.408 198.667 243.061 200.774 241.783 202.66C235.869 211.173 232.119 213.86 222.993 225.069Z" fill="url(#paint0_linear_0_265)"/>
</g>
<defs>
<filter id="filter0_f_0_265" x="-3.33786e-06" y="-4.76837e-07" width="350.022" height="368.719" filterUnits="userSpaceOnUse" color-interpolation-filters="sRGB">
<feFlood flood-opacity="0" result="BackgroundImageFix"/>
<feBlend mode="normal" in="SourceGraphic" in2="BackgroundImageFix" result="shape"/>
<feGaussianBlur stdDeviation="50" result="effect1_foregroundBlur_0_265"/>
</filter>
<linearGradient id="paint0_linear_0_265" x1="173.491" y1="104.288" x2="173.491" y2="257.809" gradientUnits="userSpaceOnUse">
<stop stop-color="#1B5B46"/>
<stop offset="1" stop-color="#0E2D37"/>
</linearGradient>
</defs>
</svg>
