<svg preserveAspectRatio="none" width="100%" height="100%" overflow="visible" style="display: block;" viewBox="0 0 417.654 279.817" fill="none" xmlns="http://www.w3.org/2000/svg">
<g id="Vector 25" filter="url(#filter0_f_0_117)">
<path d="M219.934 175.956C205.76 175.559 193.566 177.711 179.631 179.064C172.038 179.694 163.908 180.54 153.632 178.7C151.921 178.385 150.167 178 148.381 177.528C144.484 176.5 141.053 175.277 138.055 174.006C131.981 171.411 127.492 168.702 123.364 165.829C116.38 160.375 109.211 156.609 101.14 143.732C99.7167 141.559 99.6827 137.529 100.724 135.535C101.67 133.423 102.74 132.397 103.642 131.528C105.467 129.877 107.034 128.992 108.624 128.119C110.095 127.332 111.515 126.681 112.981 126.048C118.026 123.903 122.978 122.369 128.148 121.182C138.1 118.769 147.895 119.799 155.963 120.614C172.349 122.491 185.801 124.664 193.896 124.741C200.219 124.83 203.929 125.718 207.852 126.775C212.797 128.093 218.112 129.739 229.327 130.014C235.35 130.151 240.64 130.293 245.57 130.467C247.442 130.531 249.258 130.578 250.76 130.522C251.496 130.496 252.146 130.426 252.453 130.365C252.781 130.283 252.656 130.391 253.394 129.979C254.529 129.476 255.578 127.894 255.739 127.084C255.762 127.172 255.805 127.436 255.955 127.725C256.1 128.016 256.337 128.256 256.464 128.324C256.925 128.549 256.458 128.092 255.588 127.938C254.723 127.747 253.559 127.674 252.317 127.698C252.204 127.654 251.94 127.657 251.573 127.765C249.526 128.261 245.58 132.022 241.165 136.424C237.841 139.609 234.815 143.493 231.391 148.213C226.345 153.582 221.189 155.046 216.154 157.977C208.946 161.393 201.765 166.073 192.358 163.313C191.303 162.861 190.637 161.752 190.468 161.092C190.265 160.396 190.265 159.901 190.271 159.468C190.302 158.613 190.44 157.984 190.583 157.376C193.138 149.298 198.613 145.592 202.182 142.473C202.567 142.171 202.952 141.892 203.333 141.634C209.257 137.728 216.17 137.866 221.981 138.22C228.446 138.83 233.048 141.4 237.629 143.409C245.761 147.224 252.825 151.23 258.463 153.837C258.539 153.872 258.614 153.906 258.687 153.939C261.571 155.23 263.951 156.425 265.931 156.724C266.626 156.839 267.283 156.931 267.901 157.015C268.97 157.157 269.474 157.427 269.474 157.701C269.474 157.701 269.474 157.701 269.474 157.701C269.472 158.037 268.704 158.383 267.292 158.398C266.823 158.402 266.336 158.399 265.831 158.387C263.136 158.323 260.466 157.272 257.472 156.325C252.251 154.579 246.157 152.455 239.373 150.487C237.943 150.073 236.602 149.682 235.348 149.319C229.322 147.581 225.033 146.067 221.586 145.837C216.482 145.634 211.055 144.781 205.97 147.963C202.682 150.257 198.174 153.963 196.806 158.665C196.782 158.764 196.761 158.861 196.743 158.956C196.669 159.316 196.643 159.664 196.668 159.7C196.672 159.706 196.719 159.632 196.614 159.225C196.552 158.867 195.974 157.856 195.074 157.465C199.348 158.521 207.094 154.656 212.474 151.249C214.895 149.743 217.29 148.289 219.517 146.836C221.643 145.482 224.094 143.59 224.277 143.029C226.745 139.158 230.033 134.135 234.159 129.798C235.94 127.905 237.791 125.842 240.078 123.634C242.545 121.587 244.59 118.492 251.209 117.367C253.939 117.259 256.754 116.795 261.191 118.748C262.002 119.152 262.859 119.701 263.652 120.448C265.548 122.069 266.684 125.292 266.476 127.417C265.99 133.235 262.953 136.96 259.187 139.411C258.284 140.03 256.293 141.007 254.825 141.305C253.33 141.656 252.14 141.76 251.034 141.849C248.842 142.008 246.946 142.031 245.088 142.062C232.854 142.227 222.353 142.886 206.369 141.402C198.089 140.62 188.408 139.202 176.352 136.914C168.059 135.346 160.996 134.239 154.847 133.608C144.839 132.585 137.677 132.868 131.303 135.103C125.95 136.88 120.247 139.357 115.989 142.21C115.271 142.715 114.614 143.315 114.654 143.461C114.681 143.482 114.962 143.492 115.651 142.36C115.972 141.794 116.401 140.793 116.468 139.408C116.554 138.035 116.126 136.496 115.605 135.558C118.405 139.439 124.313 143.772 133.186 148.507C133.904 148.89 134.647 149.271 135.412 149.65C138.533 151.194 141.876 152.616 145.28 153.818C149.219 155.212 153.219 156.278 157.537 157.095C164.09 158.401 171.968 158.639 179.932 158.973C198.964 159.646 217.996 159.998 234.213 159.38C248.133 158.85 260.016 157.288 268.528 155.074C270.302 154.62 272.106 154.12 273.929 153.572C281.262 151.387 288.75 148.386 297.268 144.654C298.51 144.126 299.773 143.596 301.183 143.055C301.894 142.785 302.636 142.508 303.592 142.212C304.08 142.064 304.615 141.906 305.417 141.745C306.245 141.628 307.253 141.28 309.771 141.695C310.932 141.923 312.676 142.46 314.362 143.936C316.065 145.393 317.054 147.529 317.36 148.937C317.941 151.82 317.501 152.873 317.393 153.731C317.103 154.663 317.008 157.672 313.397 160.863C310.2 163.687 304.738 165.988 299.681 165.699C294.377 165.481 288.438 164.17 283.15 159.635C275.711 152.011 272.102 146.677 266.534 140.286C263.58 136.778 260.892 133.98 257.457 131.171C255.285 129.375 253.089 127.737 250.782 126.244C248.422 124.717 245.909 123.348 243.236 122.15C235.306 118.489 226.05 117.087 215.836 116.848C199.998 116.565 182.813 118.122 166.166 120.335C154.718 121.923 143.185 123.946 132.821 126.826C131.209 127.285 129.645 127.772 128.326 128.264C127.674 128.506 127.079 128.757 126.701 128.938C126.513 129.027 126.385 129.096 126.367 129.094C126.342 129.097 126.474 128.985 126.631 128.793C126.69 128.705 126.916 128.503 127.351 127.73C127.781 127.015 128.34 125.296 128.204 123.82C128.094 122.349 127.675 121.557 127.479 121.167C127.262 120.769 127.161 120.665 127.128 120.628C127.067 120.577 127.235 120.812 127.447 121.064C129.069 122.955 130.727 124.859 132.401 126.672C133.235 127.574 134.076 128.456 134.878 129.241C135.628 129.995 136.6 130.796 136.651 130.853C140.345 133.241 143.876 134.611 148.485 135.611C155.053 137.006 162.164 137.771 169.31 138.166C179 138.661 188.999 138.698 198.225 138.122C200.066 137.995 201.907 137.83 203.519 137.591C203.914 137.533 204.298 137.467 204.615 137.403C204.91 137.352 205.251 137.238 205.05 137.337C204.987 137.373 204.875 137.42 204.587 137.618C204.422 137.738 204.265 137.843 203.931 138.179C203.656 138.472 203.152 139.02 202.797 140.053C202.37 141.184 202.51 142.857 203.019 143.829C203.46 144.746 203.986 145.213 204.228 145.427C204.524 145.68 204.732 145.804 204.866 145.882C205.011 145.966 205.11 146.011 205.174 146.039C205.439 146.148 205.394 146.106 205.332 146.085C205.264 146.057 205.138 146.019 204.985 145.979C197.734 144.568 189.017 144.004 181.633 142.891C176.489 142.05 172.403 141.592 167.033 139.405C166.915 139.345 166.811 139.293 166.619 139.18C166.529 139.126 166.429 139.065 166.278 138.96C166.206 138.909 166.128 138.851 166.042 138.781C165.939 138.698 165.815 138.591 165.681 138.455C165.472 138.214 164.918 137.748 164.608 136.494C164.232 135.086 165.019 133.483 165.512 133.021C165.739 132.766 165.951 132.588 166.136 132.451C166.326 132.312 166.414 132.261 166.535 132.19C166.647 132.126 166.749 132.074 166.842 132.03C166.919 131.993 166.982 131.966 167.046 131.94C167.551 131.74 167.725 131.716 167.948 131.661C168.134 131.619 168.301 131.589 168.447 131.564C169.032 131.468 169.473 131.422 169.934 131.37C170.841 131.272 171.675 131.195 172.505 131.116C174.15 130.961 175.725 130.813 177.189 130.672C177.682 130.624 178.147 130.579 178.635 130.53C196.592 128.682 206.413 127.445 217.842 125.312C220.547 124.788 223.377 124.219 226.275 123.436C226.991 123.239 227.714 123.025 228.38 122.782C228.703 122.664 229.03 122.527 229.217 122.423C229.31 122.378 229.377 122.306 229.228 122.426C229.185 122.463 229.124 122.521 229.049 122.616C228.959 122.731 228.834 122.919 228.744 123.192C228.641 123.483 228.602 123.948 228.7 124.321C228.783 124.674 228.96 124.959 229.086 125.113C229.317 125.389 229.446 125.445 229.484 125.474C229.532 125.504 229.52 125.497 229.493 125.489C229.43 125.467 229.296 125.428 229.151 125.395C228.842 125.321 228.46 125.255 228.08 125.2C227.289 125.087 226.429 125.005 225.518 124.937C223.322 124.776 220.9 124.69 218.309 124.63C206.068 124.376 190.324 124.039 175.096 123.12C169.434 122.782 163.864 122.36 158.547 121.871C148.658 120.989 150.885 119.775 160.873 119.247C165.971 118.985 170.741 118.907 175.137 118.851C183.286 118.744 190.067 118.73 194.981 117.84C207.301 115.681 213.673 114.417 226.409 115.981C228.046 116.253 229.27 116.312 232.16 117.279C232.341 117.348 232.611 117.452 232.886 117.578C233.027 117.643 233.16 117.707 233.328 117.794C233.522 117.894 233.727 118.009 233.949 118.149C234.321 118.394 235.081 118.872 235.855 119.89C236.334 120.524 236.813 121.41 237.037 122.494C237.293 123.64 237.151 124.976 236.835 125.863C236.55 126.706 236.15 127.341 235.785 127.81C235.493 128.182 235.211 128.465 234.952 128.697C234.422 129.16 234.15 129.321 233.807 129.533C233.255 129.857 232.834 130.034 232.47 130.179C231.069 130.706 230.139 130.874 229.116 131.081C225.248 131.782 222.176 132.214 219.278 132.787C206.569 135.184 199.457 138.872 190.425 139.914C186.595 140.343 184.058 140.337 180.07 140.548C178.667 140.622 177.094 140.718 175.234 140.862C174.3 140.934 173.297 141.017 172.237 141.118C171.715 141.167 171.166 141.223 170.703 141.279C170.499 141.3 170.223 141.35 170.361 141.308C170.409 141.292 170.488 141.274 170.754 141.172C170.916 141.105 171.051 141.063 171.474 140.829C171.687 140.702 171.854 140.616 172.292 140.266C172.698 139.899 173.13 139.606 173.796 138.402C174.399 137.343 174.677 135.447 174.263 134.092C173.9 132.814 173.407 132.216 173.047 131.772C172.747 131.421 172.496 131.201 172.294 131.036C172.124 130.899 172.001 130.813 171.89 130.739C171.49 130.481 171.413 130.465 171.348 130.432C171.206 130.373 171.293 130.422 171.386 130.46C171.489 130.503 171.629 130.555 171.787 130.609C172.105 130.717 172.491 130.833 172.9 130.943C173.723 131.167 174.668 131.382 175.687 131.581C177.731 131.982 180.092 132.328 182.768 132.61C189.024 133.352 196.129 133.238 207.343 134.61C207.794 134.697 208.219 134.781 208.851 134.966C208.996 135.009 209.175 135.066 209.365 135.133C209.55 135.199 209.759 135.277 210.022 135.394C210.517 135.678 211.158 135.707 212.7 137.376C213.416 138.12 214.684 140.525 214.153 142.928C213.656 145.186 212.66 146.043 212.13 146.599C211.033 147.589 210.504 147.765 210.072 147.999C209.218 148.404 208.716 148.554 208.223 148.714C206.373 149.271 205.002 149.513 203.519 149.784C202.129 150.029 200.81 150.224 199.495 150.4C188.248 151.81 178.347 152.258 169.006 152.354C160.699 152.392 153.02 151.96 145.775 150.852C139.684 149.982 133.196 147.751 128.509 145.02C120.758 139.772 118.581 136.397 114.782 132.693C114.1 131.897 113.421 131.463 112.05 129.01C111.417 127.883 110.309 124.75 111.22 121.605C112.122 118.626 113.283 117.678 113.805 117.012C117.586 113.241 119.777 112.84 121.878 111.807C123.949 110.94 125.799 110.302 127.569 109.721C129.813 108.989 131.929 108.373 133.955 107.816C141.511 105.731 151.926 103.835 163.806 102.498C179.806 100.753 198.165 99.6076 216.384 100.125C223.557 100.382 230.767 101.048 237.745 102.582C241.547 103.411 245.793 104.705 250.035 106.508C256.102 109.041 262.552 112.811 268.388 117.472C272.451 120.615 276.625 124.76 279.985 128.704C285.105 134.522 291.235 142.355 294.958 146.211C295.773 146.977 297.935 147.797 300.345 147.842C301.002 147.797 301.09 147.847 302.067 147.072C300.868 148.05 300.295 149.184 300.084 149.71C299.865 150.264 299.872 150.401 299.908 150.182C299.921 150.401 299.569 150.793 300.008 153.076C300.243 154.188 301.09 156.054 302.571 157.32C304.036 158.602 305.491 159.028 306.347 159.199C308.259 159.504 308.606 159.247 308.794 159.256C308.951 159.226 308.846 159.247 308.707 159.293C308.408 159.387 307.9 159.569 307.393 159.764C306.356 160.162 305.207 160.639 304.078 161.118C295.134 165.045 286.139 168.558 278.889 170.817C276.778 171.488 274.795 172.079 272.983 172.6C252.023 178.167 245.807 176.838 235.421 176.564C231.306 176.363 226.53 176.127 219.934 175.956Z" fill="url(#paint0_linear_0_117)"/>
</g>
<defs>
<filter id="filter0_f_0_117" x="2.38419e-06" y="-1.90735e-06" width="417.654" height="279.817" filterUnits="userSpaceOnUse" color-interpolation-filters="sRGB">
<feFlood flood-opacity="0" result="BackgroundImageFix"/>
<feBlend mode="normal" in="SourceGraphic" in2="BackgroundImageFix" result="shape"/>
<feGaussianBlur stdDeviation="50" result="effect1_foregroundBlur_0_117"/>
</filter>
<linearGradient id="paint0_linear_0_117" x1="107.189" y1="138.97" x2="308.798" y2="138.97" gradientUnits="userSpaceOnUse">
<stop stop-color="#83ACF8"/>
<stop offset="1" stop-color="#4D6592"/>
</linearGradient>
</defs>
</svg>
